<?xml version="1.0" encoding="utf-8"?>
<!-- Generator: Adobe Illustrator 22.1.0, SVG Export Plug-In . SVG Version: 6.00 Build 0)  -->
<svg version="1.1" id="Layer_1" xmlns="http://www.w3.org/2000/svg" xmlns:xlink="http://www.w3.org/1999/xlink" x="0px" y="0px"
	 width="2000px" height="2000px" viewBox="0 0 2000 2000" style="enable-background:new 0 0 2000 2000;" xml:space="preserve">
<style type="text/css">
	.st0{fill:#FFFDF3;}
	.st1{fill:url(#SVGID_1_);}
	.st2{fill:url(#SVGID_2_);}
	.st3{fill:url(#SVGID_3_);}
	.st4{fill:url(#SVGID_4_);}
	.st5{fill:url(#SVGID_5_);}
	.st6{fill:url(#SVGID_6_);}
	.st7{fill:url(#SVGID_7_);}
	.st8{fill:url(#SVGID_8_);}
	.st9{fill:url(#SVGID_9_);}
	.st10{fill:url(#SVGID_10_);}
	.st11{fill:#8C4155;}
	.st12{fill:url(#SVGID_11_);}
	.st13{fill:url(#SVGID_12_);}
	.st14{fill:url(#SVGID_13_);}
	.st15{fill:url(#SVGID_14_);}
	.st16{fill:url(#SVGID_15_);}
	.st17{fill:url(#SVGID_16_);}
	.st18{fill:url(#SVGID_17_);}
	.st19{fill:url(#SVGID_18_);}
	.st20{fill:#C47E7E;}
	.st21{fill:url(#SVGID_19_);}
	.st22{fill:url(#SVGID_20_);}
	.st23{fill:url(#SVGID_21_);}
	.st24{fill:url(#SVGID_22_);}
	.st25{fill:url(#SVGID_23_);}
	.st26{fill:url(#SVGID_24_);}
	.st27{fill:url(#SVGID_25_);}
	.st28{fill:url(#SVGID_26_);}
	.st29{fill:url(#SVGID_27_);}
	.st30{fill:url(#SVGID_28_);}
	.st31{fill:url(#SVGID_29_);}
	.st32{fill:url(#SVGID_30_);}
	.st33{fill:url(#SVGID_31_);}
	.st34{fill:url(#SVGID_32_);}
	.st35{fill:url(#SVGID_33_);}
	.st36{fill:url(#SVGID_34_);}
	.st37{fill:url(#SVGID_35_);}
	.st38{fill:#D89073;}
	.st39{fill:#964B5F;}
	.st40{fill:url(#SVGID_36_);}
	.st41{fill:url(#SVGID_37_);}
	.st42{fill:url(#SVGID_38_);}
	.st43{fill:#2A143A;}
	.st44{fill:url(#SVGID_39_);}
	.st45{fill:url(#SVGID_40_);}
	.st46{fill:#FFF8D7;}
	.st47{fill:url(#SVGID_41_);}
	.st48{fill:url(#SVGID_42_);}
	.st49{fill:url(#SVGID_43_);}
	.st50{fill:url(#SVGID_44_);}
	.st51{fill:url(#SVGID_45_);}
	.st52{fill:url(#SVGID_46_);}
	.st53{fill:url(#SVGID_47_);}
	.st54{fill:url(#SVGID_48_);}
	.st55{fill:url(#SVGID_49_);}
	.st56{fill:url(#SVGID_50_);}
	.st57{fill:url(#SVGID_51_);}
	.st58{fill:url(#SVGID_52_);}
	.st59{fill:url(#SVGID_53_);}
	.st60{fill:url(#SVGID_54_);}
	.st61{fill:url(#SVGID_55_);}
	.st62{fill:url(#SVGID_56_);}
	.st63{fill:url(#SVGID_57_);}
	.st64{fill:url(#SVGID_58_);}
	.st65{fill:url(#SVGID_59_);}
	.st66{fill:url(#SVGID_60_);}
</style>
<g>
	<rect class="st0" width="2000" height="2000"/>
	<g>
		<linearGradient id="SVGID_1_" gradientUnits="userSpaceOnUse" x1="994.5131" y1="387.412" x2="994.5131" y2="999.5197">
			<stop  offset="1.219512e-02" style="stop-color:#FFF5BD"/>
			<stop  offset="1" style="stop-color:#F7B66F"/>
		</linearGradient>
		<path class="st1" d="M1859.1,972.7c-10.3-72.3-51.4-133.8-80.3-199.4c-8.6-21.4-15.2-43.3-18.9-66.1
			c-6.2-57.2,1.9-114.6,2.4-171.9c0.4-54.6-8.1-109.6-32.3-158.9c-25.6-52.4-73.9-90.8-130-106c-55.8-15.2-115.6-9.5-170.9,5
			c-61.4,16.1-119.8,42.2-182.8,52.1c-38.6,4.4-77.4,3.4-115.9-1.2c-79.2-11.7-155.2-37.6-230.6-64.2
			c-79.4-27.9-160.9-55.1-245.9-56.5c-37-0.6-75,3.9-110.5,14.2c-39,11.3-74.3,29.7-106,54.8c-57.6,45.6-86.9,116.2-101.7,186.2
			c-15.1,71.6-19,146-46.1,214.5c-18.6,41.8-44,80.1-69,118.4c-28.3,43.4-54.9,87.3-73.2,136c-42.2,112.5-15.8,236.9,37.3,340.7
			c21.7,42.4,48.2,81.7,76.4,119.8c-0.1,4.4,0.6,8.8,2.2,12.9c8.5,21,18.2,38,32.5,55.6c11.4,14,25.4,25.3,40.1,35.7
			c26,18.5,57.7,31.1,88.9,37.4c82.3,16.5,163.4-5.5,243.6-22.7c41.1-8.8,82.6-16,124.3-21.8c148.4-19.2,298.8-20.2,447.9-7.5
			c40.7,3.4,81.4,7.9,121.9,13.3c68.1,9.5,136.7,23.1,205.1,8.6c36.5-7.7,69.5-25.8,97.4-50.3c25.2-22.2,45-50.8,62.9-79
			c37.8-59.5,73-120.8,100.1-186c12.6-30.4,23-61.9,28.8-94.4C1863.6,1051.8,1864.9,1013.1,1859.1,972.7z"/>
		<linearGradient id="SVGID_2_" gradientUnits="userSpaceOnUse" x1="1570.1039" y1="282.4112" x2="1570.1039" y2="480.0879">
			<stop  offset="1.219512e-02" style="stop-color:#A05667"/>
			<stop  offset="1" style="stop-color:#722E55"/>
		</linearGradient>
		<path class="st2" d="M1702.2,485.7c15.8,8.4,32.5,14.8,50.6,15.3c2.8,0.1,5.6,0,8.4-0.2c-2.9-43-12.2-85.5-31.3-124.5
			c-25.6-52.4-73.9-90.8-130-106c-55.8-15.2-115.6-9.5-170.9,5c-16.9,4.4-33.5,9.6-50.1,15c17.3,10.7,37.4,16,56.2,23.4
			c5.3,2.4,10.4,5.2,15.3,8.4c1.8,1.6,3.5,3.3,5.2,5.1c1.5,2.3,2.8,4.6,4,7c5.1,14.4,6.9,29.7,9.5,44.7c2.9,16.3,8.1,33.1,17,47.1
			c11.6,18.3,29.4,33.2,51.1,37.3c14.4,2.7,27.1,1.7,41.4-0.6c8.2-1.3,16.2-3.2,24.4-4.5c10.9-1.1,21.9-1.1,32.9,0
			c10.9,1.8,21.5,4.7,31.9,8.6C1679.6,472.5,1690.6,479.6,1702.2,485.7z"/>
		<linearGradient id="SVGID_3_" gradientUnits="userSpaceOnUse" x1="1007.8115" y1="244.511" x2="1007.8115" y2="530.8787">
			<stop  offset="1.219512e-02" style="stop-color:#A05667"/>
			<stop  offset="1" style="stop-color:#722E55"/>
		</linearGradient>
		<path class="st3" d="M1319.5,309.7c-24,7.4-48.2,13.8-73.1,17.8c-38.6,4.4-77.4,3.4-115.9-1.2c-79.2-11.7-155.2-37.6-230.6-64.2
			c-43-15.2-86.7-30.1-131.2-40.8c-8.5,10.8-17.3,21.4-26.6,31.6c-11.1,12.2-22.3,24.1-32.4,37.2c-9.5,12.4-17.6,27.1-20.4,42.6
			c-3.5,18.9-1.7,37.4,4.1,55.6c4.3,13.7,10,26.9,12.8,41c1.1,16.6-3,33-1.9,49.6c1.7,25.9,12.7,48.5,34.8,62.8
			c15.5,10.1,36.3,14,54.5,11.8c13-1.5,23.5-4.4,35.5-9.8c8.2-3.7,15.6-8.5,22.8-14c17-12.9,31.7-28.3,48.2-41.7
			c5.9-4.3,12.2-8.2,18.8-11.5c3.1-1.1,6.2-2,9.4-2.7c2.3-0.1,4.5-0.1,6.8,0c5.2,1.1,10.2,2.7,15.1,4.6c10.8,4.8,21.4,10,32.4,14.5
			c12.6,5.1,25.9,7.4,39.4,8.2c23.4,1.4,46.9-3.8,70-7.2c10.3-1.2,20.6-1.8,30.9-1c5.2,1,10.3,2.4,15.3,4.3
			c18.6,8.7,35.8,20.5,55.9,26.1c20,5.6,42.1,5.7,62.2,0.4c22.5-5.9,41.3-19,55-37.6c13.9-18.7,18.5-43.9,17-66.8
			c-1.6-24.9-9.3-48.6-13.3-73c-0.6-6.3-0.8-12.6-0.4-19C1315.5,321.3,1317.2,315.5,1319.5,309.7z"/>
		<linearGradient id="SVGID_4_" gradientUnits="userSpaceOnUse" x1="1028.8669" y1="542.9926" x2="1028.8669" y2="1013.7714">
			<stop  offset="1.219512e-02" style="stop-color:#A05667"/>
			<stop  offset="1" style="stop-color:#722E55"/>
		</linearGradient>
		<path class="st4" d="M1081.3,1230.4c8.4-11.8,14.4-31.7,13.9-51.3c-0.3-11.3-3.8-19.8-10.1-20.5c-0.7-0.1-1.3,0-2,0.2
			c-0.9-4.6-1.8-9.2-2.7-13.9c-0.4-2.3-0.9-4.6-1.3-6.9c-0.7-3.8-0.4-1.9-0.2-1c-0.3-1.3-0.5-2.6-0.8-3.9
			c-1.8-9.2-3.5-18.4-5.2-27.6c-14.3-78.5-26.3-158.6-35.8-240c-9.5-81-16.6-163.2-21.3-246c-2.4-42.8-3.9-78.7-5.1-122
			c-1.1-41.9-1.6-83.8-1.5-125.9c0.1-24.4,0.3-48.7,0.8-73.1c-14.5-4.3-28.9-8.9-43.3-13.6c-1,42.3-1.9,84.6-2.6,126.9
			c-1.4,84.1-2.1,168.2-0.7,252c1.4,84.7,4.9,169.2,11.8,252.5c6.8,82.3,17,163.8,32.1,241.5c7.2,37.2,19.5,76,41.5,85.4
			C1060.2,1248.3,1071.5,1244.1,1081.3,1230.4z M1050.3,1201.5C1048.7,1200.4,1049.8,1201.1,1050.3,1201.5L1050.3,1201.5z"/>
		<linearGradient id="SVGID_5_" gradientUnits="userSpaceOnUse" x1="664.3843" y1="208.144" x2="664.3843" y2="478.3381">
			<stop  offset="1.219512e-02" style="stop-color:#722E55"/>
			<stop  offset="1" style="stop-color:#633459"/>
		</linearGradient>
		<path class="st5" d="M899.8,262.1c-79.4-27.9-160.9-55.1-245.9-56.5c-37-0.6-75,3.9-110.5,14.2c-39,11.3-74.3,29.7-106,54.8
			c-57.6,45.6-86.9,116.2-101.7,186.2c-14,66.3-18.4,135-40.5,199.2c11.9,0.7,24-0.2,35.8-2.6c16.2-3.4,32.3-10.7,46.1-19.8
			c14.2-9.4,27.5-20.6,38.8-33.3c22.9-26,39.1-56.2,56.4-85.9c6.6-11.3,13.5-22.5,21.2-33c7.2-8.8,15.1-17.1,23.8-24.4
			c5.5-3.9,11.2-7.3,17.2-10.3c5.1-1.8,10.4-3.2,15.8-4.2c8.8-1.6,18-9.2,23.1-16.7c1.7-1.8,3.3-3.7,4.8-5.8
			c1.2-0.3,2.3-0.6,3.5-0.9c3-0.2,6.1-0.1,9.1,0.1c11.4,2.4,22.1,6.8,32.9,11.3c15.6,6.5,30.5,11.7,47.3,14
			c34.8,4.7,66.9-7.2,97.7-22.3c12.5-6.1,24.7-12.7,37.4-18.4c9.6-3.7,19.4-6.6,29.5-8.4c26.2-2.6,52.6-0.3,78.8-3.2
			c9.7-1.1,19.5-2.2,29.1-4.5c9.6-2.3,18.7-6.1,27.7-10.2c14.3-6.5,27.8-16.9,37.6-29.2c11.3-14.2,20-29.3,25.2-46.7
			C988.4,293,944,277.6,899.8,262.1z"/>
		<linearGradient id="SVGID_6_" gradientUnits="userSpaceOnUse" x1="559.3301" y1="502.6655" x2="559.3301" y2="1043.0013">
			<stop  offset="1.219512e-02" style="stop-color:#A05667"/>
			<stop  offset="1" style="stop-color:#722E55"/>
		</linearGradient>
		<path class="st6" d="M539.5,1306.8c22-9.4,34.3-48.2,41.5-85.4c15-77.8,25.2-159.2,32.1-241.5c6.9-83.3,10.4-167.9,11.8-252.5
			c1.4-83.9,0.7-168-0.7-252c-1.5-87.5-3.7-174.9-5.7-262.4c0-2.1-0.1-4.2-0.1-6.4c-15.3,1.1-30.5,3.1-45.5,6.1
			c4,74.1,6.1,148.3,6.3,222.5c0.1,42-0.4,84-1.5,125.9c-1.2,43.2-2.7,79.1-5.1,122c-4.7,82.8-11.8,165-21.3,246
			c-9.5,81.3-21.5,161.5-35.8,240c-1.7,9.2-3.4,18.4-5.2,27.6c-0.3,1.3-0.5,2.6-0.8,3.9c0.2-0.8,0.5-2.8-0.2,1
			c-0.4,2.3-0.9,4.6-1.3,6.9c-0.9,4.6-1.8,9.2-2.7,13.9c-0.7-0.2-1.4-0.3-2-0.2c-6.3,0.7-9.8,9.2-10.1,20.5
			c-0.5,19.6,5.5,39.6,13.9,51.3C516.7,1307.6,528,1311.7,539.5,1306.8z M537.9,1265C538.4,1264.6,539.5,1263.8,537.9,1265
			L537.9,1265z"/>
		<linearGradient id="SVGID_7_" gradientUnits="userSpaceOnUse" x1="1449.0619" y1="281.7384" x2="1449.0619" y2="1054.616">
			<stop  offset="1.219512e-02" style="stop-color:#633459"/>
			<stop  offset="0.522" style="stop-color:#421F49"/>
			<stop  offset="1" style="stop-color:#2A143A"/>
		</linearGradient>
		<path class="st7" d="M1520.3,1058.5c14.1-23.7,9-52.3-2.4-75.9c-11.7-24.1-28.9-44.9-39.1-69.9c-20-48.9-22.9-102.5-24.8-154.6
			c-4.5-121.8-8.5-243.7-12.7-365.5c-1.1-30.9-2.2-61.8-3.2-92.7c-0.3-8.8-0.6-17.7-0.9-26.5c-2.7,0.7-5.3,1.3-8,2
			c-18.1,4.8-35.9,10.4-53.7,16.2c-0.1,2.1-0.2,4.3-0.4,6.4c-0.9,15.3-1.7,30.5-2.5,45.8c-5.7,119.7-5.3,240.2,12.1,359
			c16,109.1,46.9,216.7,98.8,314.3c6.1,11.5,12.5,22.8,19.2,34C1499.8,1060.8,1514.4,1068.4,1520.3,1058.5z"/>
		<linearGradient id="SVGID_8_" gradientUnits="userSpaceOnUse" x1="1534.0193" y1="270.3622" x2="1534.0193" y2="888.5242">
			<stop  offset="1.219512e-02" style="stop-color:#A05667"/>
			<stop  offset="1" style="stop-color:#722E55"/>
		</linearGradient>
		<path class="st8" d="M1566.6,1017.5c-5.6-26.5,10.2-27,5.3-54.5c-9.6-53.7-15.4-140.3-16.3-197.6
			c-2.1-133.9-23.8-262.4-25.8-396.2c-0.5-34-1-67.9-1.6-101.9c0-2-0.1-3.9-0.1-5.9c-10,0-20.1,0.5-30.1,1.5c0,0.8,0,1.6-0.1,2.3
			c-0.4,16.8-0.8,33.6-1.2,50.3c-2.8,131.6-2.6,263.9,5.8,394.5c7.7,119.8,22.6,238.1,47.5,345.4c2.9,12.6,6,25.1,9.2,37.4
			c-1.4,10.6,5.6,19,8.5,8.1C1574.6,1074.9,1572.1,1043.4,1566.6,1017.5z"/>
		<linearGradient id="SVGID_9_" gradientUnits="userSpaceOnUse" x1="1083.3068" y1="318.6004" x2="1083.3068" y2="603.6213">
			<stop  offset="1.219512e-02" style="stop-color:#722E55"/>
			<stop  offset="1" style="stop-color:#633459"/>
		</linearGradient>
		<path class="st9" d="M1060.7,686.8c15.9,9.8,31.7,19.6,47.6,29.4c6,3.7,14.8-1.1,14.4-8.3c-5.8-122.3-11.5-244.6-17.3-366.9
			c-0.3-6.4-0.6-12.8-0.9-19.2c-17.1-3.2-34-7-50.8-11.2c-2,54.8-2.7,109.7-4.1,164.5c-1.7,64.2-3.4,128.4-5.1,192.7
			c-0.7,2-0.9,4.3-0.2,6.4c-0.1,2-0.1,4-0.2,6.1C1043.9,689.9,1055.4,692,1060.7,686.8z"/>
		<g>
			
				<linearGradient id="SVGID_10_" gradientUnits="userSpaceOnUse" x1="1699.1285" y1="560.6104" x2="1699.1285" y2="684.1523" gradientTransform="matrix(0.9638 -0.2668 0.2668 0.9638 -81.5597 612.0416)">
				<stop  offset="0" style="stop-color:#C47E7E"/>
				<stop  offset="1" style="stop-color:#A05667"/>
			</linearGradient>
			<path class="st10" d="M1768.2,699.4c0.1-10.2-3.4-19.3-12.1-25.1c-3.9-2.6-8.3-4.5-12.4-7c-4.8-2.9-8.4-6.8-11-11.8
				c-4.6-9.1-5.7-19.6-11.1-28.4c-4.1-6.6-10.6-12.6-18.8-12.6c-9.1,0.1-16.2,7.7-19.2,15.8c-3.7,10-1.9,21-2.2,31.4
				c-0.4,11.4-3.1,21.6-9.4,31.1c-5.4,8.1-9.6,15.8-7.7,25.8c1.8,9.6,7.6,17.9,11.4,26.8c2,4.6,3.6,9.5,3.7,14.6
				c0.1,5.3-1.3,10.6-2.9,15.6c-3.1,9.8-6.1,19.1-4.9,29.5c2.5,21.4,16.7,38.5,33.1,51.4c4.3,3.4,8.7,6.5,13.1,9.7c0,0,0,0,0.1,0
				c0.3,0.2,0.6,0.4,1.1,0.4c19.2-0.2,38-8.5,51.3-22.3c13.4-13.9,20.1-33.2,19.2-52.4c-0.5-9.4-2.7-18.7-6.8-27.2
				c-5.1-10.8-14.3-19.9-16.5-32C1764.1,721.6,1768.2,710.6,1768.2,699.4z"/>
			<path class="st11" d="M1736.3,711.3c-2.7,8.7-7.2,16.5-13.3,23.2c-1.6-5.7-3.3-11.4-4.9-17.1c-6.1-21.7-11.5-43.8-11.3-66.5
				c0-1.3-2-1.2-2,0c-0.2,23,5.2,45,11.4,66.9c-7.7-3.2-14.4-8.1-19.9-14.4c-0.8-1-2.2,0.5-1.4,1.5c5.9,6.7,13.1,11.8,21.4,15.1
				c0.2,0.1,0.3,0.1,0.5,0.1c1.6,5.5,3.1,11,4.7,16.5c0,0,0,0,0,0c3,10.6,5.8,21.3,7.9,32c2,10,3.3,20.1,3.4,30.3
				c0.1,4.1-0.1,8.1-0.4,12.2c-8.3-5.1-15.7-11.7-21.2-19.7c-0.7-1.1-2.4,0-1.7,1.1c5.9,8.6,13.8,15.5,22.7,20.9
				c-0.5,5.6-1.3,11.2-2.3,16.7c-3.5,19.5-8,38.7-5.6,58.6c2.5,21.6,11.5,42,25.5,58.6c0.8,1,2.2-0.5,1.4-1.5
				c-13.1-15.6-21.7-34.7-24.5-54.9c-2.8-20.1,1.5-39.6,5.1-59.2c0.3-1.6,0.5-3.1,0.8-4.7c0.1,0,0.1-0.1,0.2-0.1
				c8.3-5.3,15.5-11.9,21.9-19.5c0.8-1-0.6-2.3-1.5-1.4c-5.9,7.1-12.6,13.2-20.3,18.3c2.4-16.5,2.5-32.7-0.2-49.4
				c-2.1-13-5.4-25.6-9-38.3c6.8-7.1,11.8-15.6,14.6-24.9C1738.6,710.6,1736.7,710.1,1736.3,711.3z"/>
		</g>
		<g>
			
				<linearGradient id="SVGID_11_" gradientUnits="userSpaceOnUse" x1="1756.9114" y1="640.9644" x2="1756.9114" y2="785.8361" gradientTransform="matrix(0.9998 1.954704e-02 -1.954704e-02 0.9998 57.3719 115.6671)">
				<stop  offset="0" style="stop-color:#C47E7E"/>
				<stop  offset="1" style="stop-color:#A05667"/>
			</linearGradient>
			<path class="st12" d="M1871.7,812.3c3.5-11.5,2.7-22.8-5.1-32.3c-3.5-4.3-7.8-7.9-11.5-12c-4.4-4.9-7.2-10.4-8.4-17
				c-2.2-11.8,0.1-24-3-35.6c-2.4-8.8-7.7-17.7-16.9-20.4c-10.3-3-20.8,3.2-26.8,11.3c-7.5,10-9.2,22.9-13,34.5
				c-4.2,12.7-10.7,23.2-21,31.8c-8.8,7.3-16.1,14.5-17.3,26.4c-1.2,11.4,2.5,22.7,3.8,33.9c0.7,5.9,0.8,11.9-0.8,17.6
				c-1.7,6-5,11.4-8.5,16.5c-6.8,10-13.2,19.4-15.4,31.5c-4.4,24.8,5.9,48.9,20,68.8c3.7,5.2,7.6,10.3,11.5,15.3c0,0,0,0,0.1,0.1
				c0.2,0.4,0.6,0.7,1.1,0.8c21.7,6.2,45.5,3.2,65.1-7.9c19.7-11.2,33.7-30.5,39.1-52.5c2.6-10.7,3.2-21.9,1.5-32.8
				c-2.1-13.8-9.4-27.2-7.8-41.5C1859.7,835.9,1867.9,824.8,1871.7,812.3z"/>
			<path class="st11" d="M1831.9,815c-5.9,8.9-13.6,16.2-22.7,21.6c0.1-6.9,0.1-13.9,0.2-20.8c0.4-26.4,1.7-53.1,9.5-78.5
				c0.4-1.4-1.8-2-2.3-0.6c-7.9,25.7-9.2,52.3-9.6,79c-7.6-6.2-13.5-13.9-17.5-22.8c-0.6-1.4-2.6-0.2-2,1.2
				c4.3,9.5,10.8,17.7,19,24.2c0.2,0.1,0.3,0.2,0.5,0.2c-0.1,6.7-0.1,13.4-0.2,20.1c0,0,0,0,0,0c-0.2,12.9-0.6,25.8-1.8,38.6
				c-1.1,11.9-3.1,23.7-6.3,35.2c-1.3,4.6-2.8,9.1-4.5,13.5c-7.6-8.5-13.8-18.4-17.2-29.3c-0.5-1.4-2.7-0.8-2.2,0.6
				c3.7,11.6,10.3,22.1,18.5,31c-2.5,6.1-5.3,12.1-8.2,18c-10.4,20.7-21.9,40.9-26,64c-4.4,25.1-1.2,51.1,9,74.4
				c0.6,1.4,2.6,0.2,2-1.2c-9.6-21.9-12.7-46.3-9.2-69.9c3.5-23.5,15-44,25.6-64.9c0.8-1.7,1.7-3.3,2.5-5c0.1,0,0.2,0,0.3,0
				c11.2-3.2,21.5-8.2,31.1-14.5c1.2-0.8,0.1-2.8-1.2-2c-9,5.9-18.6,10.6-28.9,13.8c8.2-17.7,13.7-35.9,16.3-55.6
				c2-15.3,2.5-30.6,2.7-46c10-5.7,18.4-13.5,24.8-23.1C1834.7,814.9,1832.7,813.7,1831.9,815z"/>
		</g>
		<g>
			
				<linearGradient id="SVGID_12_" gradientUnits="userSpaceOnUse" x1="258.538" y1="767.0585" x2="258.538" y2="915.8948" gradientTransform="matrix(0.9979 6.418632e-02 -6.418632e-02 0.9979 94.3481 39.0553)">
				<stop  offset="0" style="stop-color:#C47E7E"/>
				<stop  offset="1" style="stop-color:#A05667"/>
			</linearGradient>
			<path class="st13" d="M374.3,846.4c4.1-11.6,3.8-23.3-3.8-33.4c-3.4-4.6-7.7-8.4-11.3-12.8c-4.3-5.2-6.9-11-7.9-17.8
				c-1.7-12.2,1.2-24.6-1.4-36.7c-2-9.2-7-18.5-16.4-21.7c-10.4-3.5-21.5,2.4-28.1,10.4c-8.1,10-10.5,23.1-15,34.8
				c-4.9,12.8-12,23.4-23,31.6c-9.4,7.1-17.2,14.1-19,26.3c-1.7,11.7,1.6,23.4,2.4,35c0.4,6,0.3,12.2-1.6,18
				c-2,6.1-5.7,11.5-9.5,16.6c-7.4,9.9-14.5,19.3-17.2,31.6c-5.6,25.3,3.8,50.5,17.4,71.5c3.5,5.5,7.3,10.9,11.1,16.2
				c0,0,0,0,0.1,0.1c0.2,0.4,0.6,0.7,1.1,0.9c22,7.4,46.6,5.4,67.2-5.1c20.8-10.6,36-29.8,42.5-52.1c3.2-10.9,4.3-22.3,3-33.6
				c-1.6-14.3-8.4-28.4-6.1-42.9C360.8,870,369.8,859,374.3,846.4z"/>
			<path class="st11" d="M333.2,847.3c-6.5,8.8-14.7,16-24.3,21.1c0.4-7.1,0.8-14.2,1.2-21.3c1.6-27.1,4.2-54.4,13.4-80.1
				c0.5-1.5-1.8-2.2-2.3-0.7c-9.3,26.1-11.8,53.3-13.5,80.6c-7.5-6.7-13.2-14.9-16.9-24.2c-0.6-1.4-2.7-0.3-2.1,1.1
				c4,10,10.2,18.7,18.4,25.7c0.2,0.1,0.3,0.2,0.5,0.3c-0.4,6.9-0.8,13.7-1.2,20.6c0,0,0,0,0,0c-0.8,13.3-1.8,26.5-3.6,39.6
				c-1.7,12.1-4.2,24.1-8.1,35.8c-1.5,4.7-3.3,9.2-5.3,13.7c-7.4-9.1-13.3-19.5-16.4-30.8c-0.4-1.5-2.7-1-2.3,0.5
				c3.3,12.1,9.6,23.1,17.6,32.7c-2.8,6.2-6,12.2-9.3,18.1c-11.6,20.8-24.4,40.9-29.6,64.5c-5.6,25.6-3.6,52.4,5.8,76.8
				c0.6,1.4,2.7,0.3,2.1-1.1c-8.8-22.9-11-48.1-6.2-72.2c4.7-24,17.4-44.4,29.2-65.4c0.9-1.7,1.9-3.3,2.7-5c0.1,0,0.2,0,0.3,0
				c11.6-2.8,22.4-7.4,32.6-13.5c1.3-0.8,0.2-2.9-1.1-2.1c-9.5,5.7-19.6,10-30.3,12.8c9.2-17.8,15.7-36.3,19.2-56.3
				c2.7-15.6,3.9-31.3,4.9-47.1c10.5-5.4,19.5-13.1,26.5-22.6C336.2,847.3,334.2,846.1,333.2,847.3z"/>
		</g>
		<g>
			
				<linearGradient id="SVGID_13_" gradientUnits="userSpaceOnUse" x1="175.0652" y1="804.7739" x2="175.0652" y2="957.9419" gradientTransform="matrix(0.9699 -0.2433 0.2433 0.9699 -183.5379 172.7094)">
				<stop  offset="0" style="stop-color:#C47E7E"/>
				<stop  offset="1" style="stop-color:#A05667"/>
			</linearGradient>
			<path class="st14" d="M259.7,913.1c0.4-12.7-3.6-24-14.2-31.5c-4.8-3.4-10.2-5.9-15.1-9c-5.9-3.8-10.3-8.6-13.3-15
				c-5.5-11.4-6.5-24.5-12.9-35.5c-4.9-8.3-12.7-16-22.9-16.1c-11.3-0.2-20.3,9.1-24.2,19c-4.8,12.3-3,26-3.7,38.9
				c-0.8,14.1-4.5,26.7-12.6,38.2c-7,9.9-12.4,19.3-10.3,31.8c2,12,8.9,22.5,13.3,33.6c2.3,5.8,4.1,11.9,4.1,18.2
				c0,6.6-2,13-4.1,19.2c-4.1,12-8.1,23.5-6.9,36.4c2.4,26.5,19.6,48.2,39.5,64.7c5.2,4.3,10.6,8.4,15.9,12.4c0,0,0.1,0,0.1,0
				c0.3,0.3,0.8,0.5,1.4,0.5c23.9,0.3,47.3-9.3,64.3-26.1c17-16.9,26-40.5,25.3-64.4c-0.3-11.7-2.8-23.2-7.6-33.9
				c-6-13.5-17.1-25.2-19.5-40.1C254,940.5,259.3,926.9,259.7,913.1z"/>
			<path class="st11" d="M219.8,926.9c-3.6,10.7-9.4,20.3-17.2,28.3c-1.8-7.1-3.7-14.2-5.5-21.3c-6.9-27.1-13-54.6-12-82.7
				c0.1-1.6-2.4-1.6-2.5,0c-1,28.5,5.1,55.9,12.1,83.2c-9.4-4.2-17.6-10.4-24.2-18.4c-1-1.2-2.7,0.6-1.7,1.8
				c7.1,8.5,15.9,15.1,26.1,19.4c0.2,0.1,0.4,0.1,0.6,0.1c1.8,6.9,3.6,13.7,5.3,20.6c0,0,0,0,0,0c3.4,13.2,6.6,26.5,8.9,39.9
				c2.1,12.4,3.4,25,3.3,37.6c0,5.1-0.4,10.1-0.9,15.1c-10.1-6.5-19.1-14.9-25.7-25.1c-0.9-1.3-3-0.1-2.1,1.3
				c7,10.8,16.7,19.7,27.5,26.5c-0.8,6.9-2,13.8-3.4,20.7c-4.9,24-11.1,47.8-8.8,72.5c2.5,26.8,12.9,52.4,29.8,73.4
				c1,1.2,2.7-0.5,1.7-1.8c-15.8-19.7-25.8-43.7-28.8-68.8c-2.9-25,3.1-49,8.1-73.3c0.4-1.9,0.8-3.9,1.1-5.8c0.1,0,0.2-0.1,0.3-0.1
				c10.5-6.4,19.6-14.3,27.7-23.5c1-1.2-0.7-2.9-1.8-1.7c-7.6,8.6-16,16-25.7,22.1c3.4-20.4,4-40.5,1.2-61.2c-2.2-16.1-6-32-10-47.7
				c8.6-8.6,15-18.9,18.9-30.5C222.7,926,220.3,925.4,219.8,926.9z"/>
		</g>
		<g>
			<g>
				
					<linearGradient id="SVGID_14_" gradientUnits="userSpaceOnUse" x1="393.4059" y1="967.9141" x2="393.4059" y2="1101.7286" gradientTransform="matrix(0.9216 -1.287186e-02 9.082600e-02 0.9788 -40.9014 -3.4213)">
					<stop  offset="1.219512e-02" style="stop-color:#A05667"/>
					<stop  offset="1" style="stop-color:#722E55"/>
				</linearGradient>
				<path class="st15" d="M340.3,957.1c-0.3,1.6-0.7,3.1-1.1,4.7c-1.4,5.2-3.3,10.1-5.3,15c-0.1,0.1-0.1,0.3-0.2,0.4
					c-0.2,0.5-0.4,0.9-0.6,1.4c-0.5,1.2-1.1,2.4-1.7,3.6c-1.2,2.7-2.5,5.3-3.7,8c-5.5,11.9-10,23.9-11.7,37.4
					c-1.6,12.6,0.5,26.7,7.6,38c7.3,11.5,17.6,19.1,29,25.3c0.8,0.4,1.5,0.8,2.3,1.2c1.7,4.7,5.6,8.7,10.5,8.9
					c0.2,0,2.2,0.3,3.2,0.4c0.4,0.1,0.8,0.3,1.2,0.4c1.1,0.4,2.1,0.9,3.2,1.4c0.4,0.2,1.5,0.6,1.7,0.9c-0.4-0.2-0.9-0.5-1.3-0.7
					c0.5,0.3,0.9,0.5,1.4,0.8c4.8,2.8,9.6,5.9,14.6,8.2c13.5,5.9,26.4,2.3,38.8-2.3c22.5-8.4,45.1-17.9,62.9-34.6
					c16.4-15.5,28.6-37.5,28.3-62.3c-0.1-12.6-3.1-25.8-9.5-37.1c-3.2-5.7-7.1-10.9-11.7-15.4c-2-2-4.1-3.9-6.1-5.9
					c-0.9-0.9-1.7-1.8-2.6-2.7c-0.5-0.6-1-1.2-1.5-1.8c-0.1-0.1-0.4-0.5-0.7-0.9c-0.2-0.4-0.8-1.3-0.9-1.4c-0.3-0.6-0.6-1.2-0.9-1.8
					c-0.1-0.1-0.2-0.3-0.3-0.5c-0.1-0.4-0.2-0.9-0.3-1.2c-0.8-3-1.4-6.3-1.7-9.4c0-0.3,0-0.6-0.1-0.8c-0.2-1.6-0.3-3.2-0.5-4.9
					c-0.2-1.6-0.4-3.2-0.6-4.7c-0.5-2.9-1.1-5.8-2.1-8.6c-4.4-12.8-11.9-23.3-21.9-32.2c-18.9-16.9-43.9-21.9-67-22
					c-13.5-0.1-27.5,0.1-39.9,5.3c-11.3,4.8-19.9,15-21.8,28c-1,6.8,0,13.9,2.2,20.6c1.2,3.6,2.5,7.1,3.9,10.6
					c0.6,1.4,1.1,2.8,1.7,4.2c0.3,0.8,0.6,1.6,0.9,2.4c0,0.1,0.1,0.2,0.1,0.2c0.9,2.8,1.8,5.5,2.4,8.4c0.1,0.7,0.2,1.3,0.4,2
					c0-0.1,0-0.3,0-0.4c0,0.1,0,0.3,0,0.5c0,0.1,0,0.1,0,0.2c0.1,0.4,0.1,0.9,0,1c0.1,0.9,0.2,1.9,0.2,2.8c0,1.3,0,2.6-0.1,3.9
					c0,0.5-0.4,2-0.5,3.1c0.1-0.5,0.3-0.7,0.1,0.3c0,0.1-0.1,0.3-0.1,0.4c0,0,0,0,0,0.1c0,0,0,0,0-0.1
					C340.6,956,340.5,956.6,340.3,957.1z M367.9,1101C367.6,1101,367.5,1100.9,367.9,1101L367.9,1101z M368.9,1101.4
					c0.2,0,0.3,0,0.3,0C369.2,1101.4,369.1,1101.4,368.9,1101.4z"/>
				
					<linearGradient id="SVGID_15_" gradientUnits="userSpaceOnUse" x1="318.4498" y1="972.3069" x2="318.5558" y2="972.3069" gradientTransform="matrix(0.9216 -1.287186e-02 9.082600e-02 0.9788 -40.9014 -3.4213)">
					<stop  offset="1.219512e-02" style="stop-color:#A05667"/>
					<stop  offset="1" style="stop-color:#722E55"/>
				</linearGradient>
				<path class="st16" d="M340.9,943.6c0,1,0,1.2,0.1,1.2C341,944.4,340.9,944,340.9,943.6C340.9,943.7,340.9,943.6,340.9,943.6z"/>
				
					<linearGradient id="SVGID_16_" gradientUnits="userSpaceOnUse" x1="478.7441" y1="1050.6003" x2="478.905" y2="1050.6003" gradientTransform="matrix(0.9216 -1.287186e-02 9.082600e-02 0.9788 -40.9014 -3.4213)">
					<stop  offset="1.219512e-02" style="stop-color:#A05667"/>
					<stop  offset="1" style="stop-color:#722E55"/>
				</linearGradient>
				<path class="st17" d="M495.8,1019.1c0.1-0.3,0.1-0.4,0.1-0.5c0,0,0,0,0,0C495.8,1018.6,495.8,1018.8,495.8,1019.1z"/>
				
					<linearGradient id="SVGID_17_" gradientUnits="userSpaceOnUse" x1="317.0224" y1="983.3311" x2="317.0932" y2="983.3311" gradientTransform="matrix(0.9216 -1.287186e-02 9.082600e-02 0.9788 -40.9014 -3.4213)">
					<stop  offset="1.219512e-02" style="stop-color:#A05667"/>
					<stop  offset="1" style="stop-color:#722E55"/>
				</linearGradient>
				<path class="st18" d="M340.7,955.4C340.7,955.4,340.7,955.4,340.7,955.4c-0.1-0.2-0.1-0.5-0.1-0.8
					C340.6,954.9,340.6,955.2,340.7,955.4z"/>
				
					<linearGradient id="SVGID_18_" gradientUnits="userSpaceOnUse" x1="443.256" y1="941.4555" x2="443.8537" y2="941.4555" gradientTransform="matrix(0.9216 -1.287186e-02 9.082600e-02 0.9788 -40.9014 -3.4213)">
					<stop  offset="1.219512e-02" style="stop-color:#A05667"/>
					<stop  offset="1" style="stop-color:#722E55"/>
				</linearGradient>
				<path class="st19" d="M453.1,911.8c0.2,0.8,0.6,1.2,0.7,1.2C453.4,912.6,453.2,912.1,453.1,911.8
					C453.1,911.8,453.1,911.8,453.1,911.8z"/>
			</g>
			<g>
				<path class="st20" d="M340.7,955.5C340.7,955.5,340.7,955.4,340.7,955.5C340.7,955.4,340.7,955.4,340.7,955.5
					C340.7,955.4,340.7,955.5,340.7,955.5z"/>
				<path class="st20" d="M369.2,1101.4c0,0-0.1,0-0.3,0C369.1,1101.4,369.2,1101.4,369.2,1101.4z"/>
				<path class="st20" d="M340.9,943.7c0-0.2,0-0.3,0-0.5C341,943.4,340.9,943.5,340.9,943.7C340.9,943.6,340.9,943.7,340.9,943.7z"
					/>
				<path class="st20" d="M340.6,954.6c0,0.3,0,0.6,0.1,0.8c0-0.1,0.1-0.3,0.1-0.4C341,953.9,340.7,954.1,340.6,954.6z"/>
				<path class="st20" d="M340.9,943.7c0,0.4,0,0.7,0,1.1c0-0.1,0.1-0.5,0-1C341,943.8,341,943.7,340.9,943.7z"/>
				<path class="st20" d="M367.9,1101C367.5,1100.9,367.6,1101,367.9,1101L367.9,1101z"/>
				<path class="st20" d="M340.9,943.6c0,1,0,1.2,0.1,1.2C341,944.4,340.9,944,340.9,943.6C340.9,943.7,340.9,943.6,340.9,943.6z"/>
				<path class="st20" d="M340.7,955.4C340.7,955.4,340.7,955.4,340.7,955.4c-0.1-0.2-0.1-0.5-0.1-0.8
					C340.6,954.9,340.6,955.2,340.7,955.4z"/>
				<path class="st20" d="M343.9,988.6c-3.5-3.7-6.9-7.6-10.1-11.5c0,0,0,0.1,0,0.1c-0.2,0.5-0.4,0.9-0.6,1.4
					c-0.5,1.2-1.1,2.4-1.7,3.6c-0.5,1-0.9,2-1.4,3c19.1,22.4,42,41.4,67,55.5c8.6,4.8,17.3,9.1,26.3,12.8c0.8,18.9,1.6,37.9,4,56.7
					c0.3-0.1,0.6-0.2,0.9-0.3c2.8-1,5.6-2.1,8.4-3.2c-1.2-10.1-2-20.2-2.5-30.1c32.8-17.2,67.7-36.8,81.5-74.9
					c0.7-1.9,1.3-3.7,1.8-5.7c-1.2-5.5-3-11-5.5-16.1c-3.1,33.5-28.5,57.7-54.3,73.5c-7.8,4.8-15.9,9.1-24,13.4
					c-1.2-25-1.7-50-4.9-75c-1-7.8-2.3-15.5-3.9-23.1c16.1-20.2,27.3-44.9,32-71.6c0.7-4.2,1.3-8.5,1.8-12.7
					c-0.2-0.2-0.4-0.4-0.6-0.6c-2.3-2.1-4.7-3.9-7.2-5.6c-2.2,29.3-12.1,57.1-28.5,79.6c-0.7-2.9-1.5-5.8-2.3-8.8
					c10.4-23.9,18.8-48.8,24.9-74.5c-2.5-1.4-5.1-2.7-7.8-3.9c-5.4,22.6-12.4,44.7-21.1,65.8c-2.1-6.3-4.5-12.5-7.1-18.7
					c-8.3-19.7-18.9-38.4-31.5-55.7c-3.8,0.2-7.5,0.5-11.2,1c7.1,9.3,13.6,19.1,19.4,29.3c-16.3-2.5-32.2-8-47.1-16.3
					c-1.9,2-3.6,4.3-4.9,6.7c17.9,10.3,37.4,16.8,57.2,19c1.7,3.3,3.4,6.7,5,10.1c-12.4-1.4-24.8-3.5-37.2-6.1
					c-10-2.1-20.9-5-28.9-12.8c-0.2,0.7-0.3,1.4-0.4,2.2c-0.4,2.6-0.5,5.2-0.3,7.8c8.1,5.9,17.6,8.8,27.1,10.9
					c14.5,3.3,29.2,5.5,43.8,7.1c6.5,15.3,11.5,31.1,15,47.3c-0.2,1,0,2.1,0.7,3.1c1.2,5.7,2.2,11.4,3,17.1c1,7.3,1.8,14.6,2.4,22
					c-15.4-7.2-30.8-14.4-46.2-21.6c-12.7-5.9-28.5-12.8-35.7-26.4c-0.9,3.2-2,6.4-3.2,9.5c8.3,10.9,20.8,17.7,32.9,23.4
					c17.6,8.3,35.3,16.5,52.9,24.7c0.5,8.1,0.9,16.2,1.3,24.4C393.7,1031.7,366.5,1012.6,343.9,988.6z"/>
			</g>
		</g>
		<g>
			<g>
				
					<linearGradient id="SVGID_19_" gradientUnits="userSpaceOnUse" x1="1580.7424" y1="949.6932" x2="1580.7424" y2="1083.5077" gradientTransform="matrix(-0.9216 -1.287186e-02 -9.082600e-02 0.9788 3222.9014 -3.4213)">
					<stop  offset="1.219512e-02" style="stop-color:#A05667"/>
					<stop  offset="1" style="stop-color:#722E55"/>
				</linearGradient>
				<path class="st21" d="M1748.7,922.3C1748.7,922.3,1748.7,922.3,1748.7,922.3C1748.7,922.3,1748.7,922.3,1748.7,922.3
					c0-0.2-0.1-0.3-0.1-0.5c-0.2-1,0.1-0.8,0.1-0.3c-0.1-1-0.4-2.6-0.5-3.1c-0.1-1.3-0.1-2.6-0.1-3.9c0-0.9,0.1-1.9,0.2-2.8
					c0-0.1-0.1-0.5,0-1c0-0.1,0-0.1,0-0.2c0-0.2,0-0.3,0-0.5c0,0.1,0,0.3,0,0.4c0.1-0.7,0.2-1.3,0.4-2c0.6-2.9,1.5-5.6,2.4-8.4
					c0-0.1,0.1-0.1,0.1-0.2c0.3-0.8,0.6-1.6,0.9-2.4c0.6-1.4,1.1-2.8,1.7-4.2c1.4-3.5,2.7-7.1,3.9-10.6c2.2-6.7,3.2-13.9,2.2-20.6
					c-1.9-13-10.6-23.2-21.8-28c-12.3-5.2-26.4-5.4-39.9-5.3c-23,0.1-48,5.1-67,22c-10,8.9-17.5,19.4-21.9,32.2
					c-1,2.8-1.6,5.7-2.1,8.6c-0.2,1.6-0.4,3.2-0.6,4.7c-0.2,1.6-0.3,3.2-0.5,4.9c0,0.2,0,0.6-0.1,0.8c-0.3,3.1-0.9,6.4-1.7,9.4
					c-0.1,0.4-0.2,0.8-0.3,1.2c-0.1,0.2-0.2,0.4-0.3,0.5c-0.3,0.6-0.6,1.2-0.9,1.8c-0.1,0.1-0.7,1-0.9,1.4c-0.3,0.4-0.6,0.8-0.7,0.9
					c-0.5,0.6-1,1.2-1.5,1.8c-0.8,0.9-1.7,1.8-2.6,2.7c-2,2-4.1,3.9-6.1,5.9c-4.6,4.5-8.5,9.7-11.7,15.4
					c-6.4,11.3-9.3,24.5-9.5,37.1c-0.3,24.8,11.8,46.8,28.3,62.3c17.7,16.7,40.4,26.2,62.9,34.6c12.4,4.6,25.3,8.3,38.8,2.3
					c5.1-2.2,9.8-5.3,14.6-8.2c0.5-0.3,0.9-0.5,1.4-0.8c-0.4,0.2-0.9,0.5-1.3,0.7c0.2-0.3,1.4-0.7,1.7-0.9c1-0.5,2.1-1,3.2-1.4
					c0.4-0.1,0.8-0.3,1.2-0.4c1-0.1,3-0.4,3.2-0.4c4.9-0.3,8.8-4.3,10.5-8.9c0.8-0.4,1.5-0.8,2.3-1.2c11.4-6.1,21.7-13.7,29-25.3
					c7.1-11.3,9.2-25.4,7.6-38c-1.7-13.4-6.1-25.5-11.7-37.4c-1.2-2.7-2.5-5.3-3.7-8c-0.6-1.2-1.1-2.4-1.7-3.6
					c-0.2-0.5-0.4-0.9-0.6-1.4c0-0.1-0.1-0.2-0.2-0.4c-2-4.9-3.9-9.8-5.3-15c-0.4-1.5-0.8-3.1-1.1-4.7
					C1748.9,923.4,1748.8,922.9,1748.7,922.3z M1721.5,1067.9C1721.9,1067.8,1721.8,1067.8,1721.5,1067.9L1721.5,1067.9z
					 M1720.2,1068.3c0,0,0.1,0,0.3,0C1720.3,1068.3,1720.2,1068.3,1720.2,1068.3z"/>
				
					<linearGradient id="SVGID_20_" gradientUnits="userSpaceOnUse" x1="1505.7864" y1="954.0859" x2="1505.8925" y2="954.0859" gradientTransform="matrix(-0.9216 -1.287186e-02 -9.082600e-02 0.9788 3222.9014 -3.4213)">
					<stop  offset="1.219512e-02" style="stop-color:#A05667"/>
					<stop  offset="1" style="stop-color:#722E55"/>
				</linearGradient>
				<path class="st22" d="M1748.4,910.5c0,1,0,1.2-0.1,1.2C1748.4,911.3,1748.4,910.9,1748.4,910.5
					C1748.4,910.5,1748.4,910.5,1748.4,910.5z"/>
				
					<linearGradient id="SVGID_21_" gradientUnits="userSpaceOnUse" x1="1666.0807" y1="1032.3794" x2="1666.2416" y2="1032.3794" gradientTransform="matrix(-0.9216 -1.287186e-02 -9.082600e-02 0.9788 3222.9014 -3.4213)">
					<stop  offset="1.219512e-02" style="stop-color:#A05667"/>
					<stop  offset="1" style="stop-color:#722E55"/>
				</linearGradient>
				<path class="st23" d="M1593.6,985.9c-0.1-0.3-0.1-0.4-0.1-0.5c0,0,0,0,0,0C1593.5,985.5,1593.6,985.7,1593.6,985.9z"/>
				
					<linearGradient id="SVGID_22_" gradientUnits="userSpaceOnUse" x1="1504.359" y1="965.1102" x2="1504.4298" y2="965.1102" gradientTransform="matrix(-0.9216 -1.287186e-02 -9.082600e-02 0.9788 3222.9014 -3.4213)">
					<stop  offset="1.219512e-02" style="stop-color:#A05667"/>
					<stop  offset="1" style="stop-color:#722E55"/>
				</linearGradient>
				<path class="st24" d="M1748.7,922.3C1748.7,922.3,1748.7,922.3,1748.7,922.3c0.1-0.2,0.1-0.5,0.1-0.8
					C1748.8,921.8,1748.8,922,1748.7,922.3z"/>
				
					<linearGradient id="SVGID_23_" gradientUnits="userSpaceOnUse" x1="1630.5925" y1="923.2346" x2="1631.1903" y2="923.2346" gradientTransform="matrix(-0.9216 -1.287186e-02 -9.082600e-02 0.9788 3222.9014 -3.4213)">
					<stop  offset="1.219512e-02" style="stop-color:#A05667"/>
					<stop  offset="1" style="stop-color:#722E55"/>
				</linearGradient>
				<path class="st25" d="M1636.3,878.7c-0.2,0.8-0.6,1.2-0.7,1.2C1635.9,879.4,1636.2,879,1636.3,878.7
					C1636.3,878.7,1636.3,878.7,1636.3,878.7z"/>
			</g>
			<g>
				<path class="st20" d="M1748.7,922.4C1748.7,922.3,1748.7,922.3,1748.7,922.4C1748.7,922.3,1748.7,922.3,1748.7,922.4
					C1748.7,922.3,1748.7,922.3,1748.7,922.4z"/>
				<path class="st20" d="M1720.2,1068.3c0,0,0.1,0,0.3,0C1720.3,1068.3,1720.2,1068.3,1720.2,1068.3z"/>
				<path class="st20" d="M1748.4,910.6c0-0.2,0-0.3,0-0.5C1748.4,910.2,1748.4,910.4,1748.4,910.6
					C1748.4,910.5,1748.4,910.5,1748.4,910.6z"/>
				<path class="st20" d="M1748.8,921.5c0,0.3,0,0.6-0.1,0.8c0-0.1-0.1-0.3-0.1-0.4C1748.4,920.8,1748.7,921,1748.8,921.5z"/>
				<path class="st20" d="M1748.4,910.6c0,0.4,0,0.7,0,1.1c0-0.1-0.1-0.5,0-1C1748.4,910.7,1748.4,910.6,1748.4,910.6z"/>
				<path class="st20" d="M1721.5,1067.9C1721.9,1067.8,1721.8,1067.8,1721.5,1067.9L1721.5,1067.9z"/>
				<path class="st20" d="M1748.4,910.5c0,1,0,1.2-0.1,1.2C1748.4,911.3,1748.4,910.9,1748.4,910.5
					C1748.4,910.5,1748.4,910.5,1748.4,910.5z"/>
				<path class="st20" d="M1748.7,922.3C1748.7,922.3,1748.7,922.3,1748.7,922.3c0.1-0.2,0.1-0.5,0.1-0.8
					C1748.8,921.8,1748.8,922,1748.7,922.3z"/>
				<path class="st20" d="M1745.5,955.5c3.5-3.7,6.9-7.6,10.1-11.5c0,0,0,0.1,0,0.1c0.2,0.5,0.4,0.9,0.6,1.4
					c0.5,1.2,1.1,2.4,1.7,3.6c0.5,1,0.9,2,1.4,3c-19.1,22.4-42,41.4-67,55.5c-8.6,4.8-17.3,9.1-26.3,12.8c-0.8,18.9-1.6,37.9-4,56.7
					c-0.3-0.1-0.6-0.2-0.9-0.3c-2.8-1-5.6-2.1-8.4-3.2c1.2-10.1,2-20.2,2.5-30.1c-32.8-17.2-67.7-36.8-81.5-74.9
					c-0.7-1.9-1.3-3.7-1.8-5.7c1.2-5.5,3-11,5.5-16.1c3.1,33.5,28.5,57.7,54.3,73.5c7.8,4.8,15.9,9.1,24,13.4c1.2-25,1.7-50,4.9-75
					c1-7.8,2.3-15.5,3.9-23.1c-16.1-20.2-27.3-44.9-32-71.6c-0.7-4.2-1.3-8.5-1.8-12.7c0.2-0.2,0.4-0.4,0.6-0.6
					c2.3-2.1,4.7-3.9,7.2-5.6c2.2,29.3,12.1,57.1,28.5,79.6c0.7-2.9,1.5-5.8,2.3-8.8c-10.4-23.9-18.8-48.8-24.9-74.5
					c2.5-1.4,5.1-2.7,7.8-3.9c5.4,22.6,12.4,44.7,21.1,65.8c2.1-6.3,4.5-12.5,7.1-18.7c8.3-19.7,18.9-38.4,31.5-55.7
					c3.8,0.2,7.5,0.5,11.2,1c-7.1,9.3-13.6,19.1-19.4,29.3c16.3-2.5,32.2-8,47.1-16.3c1.9,2,3.6,4.3,4.9,6.7
					c-17.9,10.3-37.4,16.8-57.2,19c-1.7,3.3-3.4,6.7-5,10.1c12.4-1.4,24.8-3.5,37.2-6.1c10-2.1,20.9-5,28.9-12.8
					c0.2,0.7,0.3,1.4,0.4,2.2c0.4,2.6,0.5,5.2,0.3,7.8c-8.1,5.9-17.6,8.8-27.1,10.9c-14.5,3.3-29.2,5.5-43.8,7.1
					c-6.5,15.3-11.5,31.1-15,47.3c0.2,1,0,2.1-0.7,3.1c-1.2,5.7-2.2,11.4-3,17.1c-1,7.3-1.8,14.6-2.4,22
					c15.4-7.2,30.8-14.4,46.2-21.6c12.7-5.9,28.5-12.8,35.7-26.4c0.9,3.2,2,6.4,3.2,9.5c-8.3,10.9-20.8,17.7-32.9,23.4
					c-17.6,8.3-35.3,16.5-52.9,24.7c-0.5,8.1-0.9,16.2-1.3,24.4C1695.7,998.6,1722.9,979.5,1745.5,955.5z"/>
			</g>
		</g>
		<g>
			<g>
				
					<linearGradient id="SVGID_24_" gradientUnits="userSpaceOnUse" x1="608.4614" y1="914.5833" x2="608.4614" y2="1095.0853" gradientTransform="matrix(0.8951 0.2198 -0.1588 0.9701 217.1187 -97.4552)">
					<stop  offset="1.219512e-02" style="stop-color:#A05667"/>
					<stop  offset="1" style="stop-color:#722E55"/>
				</linearGradient>
				<path class="st26" d="M520,923.7c-1,2-2,3.9-3.1,5.7c-3.6,6.3-7.7,12.1-12.1,17.8c-0.1,0.2-0.2,0.3-0.3,0.4
					c-0.4,0.5-0.9,1.1-1.3,1.6c-1.1,1.4-2.3,2.8-3.4,4.2c-2.5,3.1-5,6.1-7.5,9.1c-11.2,13.6-21.1,27.9-27.9,44.8
					c-6.4,15.9-8.4,35.1-3,52.2c5.6,17.5,16.4,30.9,29.3,42.9c0.8,0.8,1.7,1.5,2.6,2.3c0.6,6.7,4.3,13.2,10.6,15.2
					c0.3,0.1,2.8,1.2,4,1.7c0.5,0.3,0.9,0.6,1.4,0.9c1.3,0.9,2.5,1.9,3.7,2.9c0.4,0.4,1.8,1.2,2,1.8c-0.5-0.5-1-0.9-1.5-1.4
					c0.5,0.5,1,1,1.5,1.5c5.3,5.3,10.5,11,16.3,15.6c15.6,12.3,33.7,11.9,51.5,10.1c32.2-3.3,65-8,93.8-23.8
					c26.7-14.7,50-39.2,58.1-71.7c4.1-16.5,4.7-34.7,0.2-51.6c-2.3-8.5-5.6-16.6-10-24.1c-1.9-3.3-4-6.5-5.9-9.8
					c-0.8-1.4-1.7-2.9-2.5-4.4c-0.5-0.9-0.9-1.9-1.4-2.8c-0.1-0.2-0.4-0.8-0.6-1.4c-0.2-0.6-0.7-1.9-0.7-2.1
					c-0.2-0.9-0.4-1.8-0.6-2.6c0-0.2-0.1-0.5-0.2-0.8c0-0.6,0-1.2,0-1.7c-0.1-4.3,0.3-8.7,1-12.8c0.1-0.4,0.2-0.8,0.2-1.1
					c0.3-2.2,0.7-4.4,1-6.5c0.3-2.1,0.6-4.2,0.8-6.4c0.4-3.9,0.5-7.9,0.2-11.9c-1.4-18.2-7.6-34.5-17.6-49.5
					c-19-28.5-49.9-43.5-79.9-51.4c-17.6-4.7-36-9.3-53.8-6.6c-16.3,2.4-31.1,12.8-38,29.1c-3.6,8.5-4.7,18.2-4.1,27.7
					c0.3,5.1,0.9,10.2,1.5,15.2c0.2,2,0.5,4.1,0.8,6.1c0.1,1.1,0.3,2.3,0.4,3.4c0,0.1,0,0.2,0,0.3c0.3,4,0.5,7.9,0.3,11.8
					c-0.1,0.9-0.2,1.8-0.2,2.8c0-0.2,0.1-0.3,0.2-0.5c-0.1,0.2-0.1,0.4-0.2,0.6c0,0.1,0,0.2,0,0.2c0,0.6-0.2,1.2-0.3,1.3
					c-0.2,1.3-0.4,2.6-0.7,3.8c-0.4,1.7-0.9,3.4-1.5,5.1c-0.2,0.6-1.2,2.5-1.6,3.8c0.3-0.6,0.7-0.8,0.1,0.5
					c-0.1,0.2-0.2,0.4-0.3,0.6c0,0,0,0.1,0,0.1c0,0,0,0,0-0.1C520.7,922.3,520.4,923,520,923.7z M507,1121
					C506.7,1120.8,506.6,1120.7,507,1121L507,1121z M508.3,1121.7c0.2,0.1,0.4,0.1,0.4,0.1C508.6,1121.9,508.4,1121.8,508.3,1121.7z
					"/>
				
					<linearGradient id="SVGID_25_" gradientUnits="userSpaceOnUse" x1="507.3533" y1="920.5087" x2="507.4964" y2="920.5087" gradientTransform="matrix(0.8951 0.2198 -0.1588 0.9701 217.1187 -97.4552)">
					<stop  offset="1.219512e-02" style="stop-color:#A05667"/>
					<stop  offset="1" style="stop-color:#722E55"/>
				</linearGradient>
				<path class="st27" d="M525.4,906.3c-0.4,1.2-0.4,1.6-0.3,1.6C525.1,907.4,525.2,906.9,525.4,906.3
					C525.4,906.4,525.4,906.3,525.4,906.3z"/>
				
					<linearGradient id="SVGID_26_" gradientUnits="userSpaceOnUse" x1="723.574" y1="1026.1185" x2="723.7909" y2="1026.1185" gradientTransform="matrix(0.8951 0.2198 -0.1588 0.9701 217.1187 -97.4552)">
					<stop  offset="1.219512e-02" style="stop-color:#A05667"/>
					<stop  offset="1" style="stop-color:#722E55"/>
				</linearGradient>
				<path class="st28" d="M701.8,1057.4c0.2-0.3,0.3-0.5,0.3-0.6c0,0,0,0,0,0C702.1,1056.9,702,1057.1,701.8,1057.4z"/>
				
					<linearGradient id="SVGID_27_" gradientUnits="userSpaceOnUse" x1="505.428" y1="935.3793" x2="505.5235" y2="935.3793" gradientTransform="matrix(0.8951 0.2198 -0.1588 0.9701 217.1187 -97.4552)">
					<stop  offset="1.219512e-02" style="stop-color:#A05667"/>
					<stop  offset="1" style="stop-color:#722E55"/>
				</linearGradient>
				<path class="st29" d="M521,921.6C521,921.6,521,921.6,521,921.6c0-0.3,0.1-0.6,0.2-1.1C521.1,920.9,521,921.3,521,921.6z"/>
				
					<linearGradient id="SVGID_28_" gradientUnits="userSpaceOnUse" x1="675.7041" y1="878.8934" x2="676.5103" y2="878.8934" gradientTransform="matrix(0.8951 0.2198 -0.1588 0.9701 217.1187 -97.4552)">
					<stop  offset="1.219512e-02" style="stop-color:#A05667"/>
					<stop  offset="1" style="stop-color:#722E55"/>
				</linearGradient>
				<path class="st30" d="M682.6,902.9c0,1.1,0.3,1.8,0.5,1.7C682.8,904,682.6,903.4,682.6,902.9
					C682.6,902.9,682.6,902.9,682.6,902.9z"/>
			</g>
			<g>
				<path class="st20" d="M521,921.7C521,921.7,521,921.6,521,921.7C521,921.6,521,921.6,521,921.7C521,921.7,521,921.7,521,921.7z"
					/>
				<path class="st20" d="M508.6,1121.9c0,0-0.2,0-0.4-0.1C508.4,1121.8,508.6,1121.9,508.6,1121.9z"/>
				<path class="st20" d="M525.4,906.4c0.1-0.2,0.1-0.4,0.2-0.6C525.5,906,525.4,906.2,525.4,906.4
					C525.4,906.3,525.4,906.4,525.4,906.4z"/>
				<path class="st20" d="M521.2,920.6c-0.1,0.4-0.2,0.8-0.2,1c0.1-0.2,0.2-0.4,0.3-0.6C521.9,919.8,521.5,920,521.2,920.6z"/>
				<path class="st20" d="M525.4,906.4c-0.1,0.5-0.2,1-0.3,1.5c0.1-0.1,0.3-0.6,0.3-1.3C525.4,906.5,525.4,906.5,525.4,906.4z"/>
				<path class="st20" d="M507,1121C506.6,1120.7,506.7,1120.8,507,1121L507,1121z"/>
				<path class="st20" d="M525.4,906.3c-0.4,1.2-0.4,1.6-0.3,1.6C525.1,907.4,525.2,906.9,525.4,906.3
					C525.4,906.4,525.4,906.3,525.4,906.3z"/>
				<path class="st20" d="M521,921.6C521,921.6,521,921.6,521,921.6c0-0.3,0.1-0.6,0.2-1.1C521.1,920.9,521,921.3,521,921.6z"/>
				<path class="st20" d="M514,966c-3.3-6-6.4-12.2-9.3-18.5c0,0-0.1,0.1-0.1,0.1c-0.4,0.5-0.9,1.1-1.3,1.6
					c-1.1,1.4-2.3,2.8-3.4,4.2c-1,1.2-1.9,2.3-2.9,3.5c17.4,35.8,40.7,68.3,68.6,95.2c9.5,9.2,19.5,17.8,30,25.7
					c-5.4,25-10.8,50-14.1,75.4c0.4,0,0.9-0.1,1.3-0.1c4-0.4,8-0.8,12-1.3c1.9-13.6,4.3-27,6.9-40.2c48.7-11.3,100.8-25,131.9-70
					c1.5-2.2,3-4.5,4.3-6.8c0.3-7.7-0.2-15.4-1.7-22.9c-15.4,42.7-56.8,65.6-95.9,77.4c-11.8,3.6-23.9,6.5-35.9,9.3
					c7-33,14.7-65.8,19.1-99.5c1.4-10.5,2.3-21,2.8-31.5c28-20.9,50.9-49.3,66.1-82.6c2.4-5.2,4.6-10.6,6.6-16
					c-0.2-0.3-0.4-0.7-0.6-1c-2.3-3.5-4.8-6.7-7.4-9.8c-12.8,37.5-35.2,70.4-64.3,94.2c0-4.1,0-8.1-0.1-12.2
					c21.7-27.6,41.1-57.3,57.9-88.8c-2.8-2.7-5.8-5.3-8.8-7.7c-14.7,27.7-31.3,54.1-49.9,78.8c-0.6-8.9-1.6-17.9-2.9-26.8
					c-4.1-28.5-11.7-56.6-22.2-83.4c-5-1.1-10-1.9-15-2.5c6.1,14.6,11.3,29.6,15.4,44.8c-20.4-8.8-39.4-21.4-55.9-37.3
					c-3.2,2-6.1,4.4-8.7,7.1c19.9,19.5,43.1,34.7,68.2,44.3c1.1,4.9,2.2,9.9,3.1,14.9c-15.7-6.1-31.2-13-46.4-20.6
					c-12.3-6.2-25.6-13.7-33.4-26.5c-0.4,0.9-0.9,1.8-1.3,2.7c-1.4,3.2-2.4,6.6-3.1,10.1c8.6,10.4,20,17.5,31.6,23.5
					c17.8,9.2,36.2,17.1,54.7,24.1c3.2,22.1,4.4,44.5,3.6,66.8c-0.6,1.3-0.7,2.8-0.2,4.3c-0.4,7.8-1,15.6-1.9,23.3
					c-1.1,9.9-2.6,19.7-4.3,29.5c-17.7-14.6-35.3-29.2-53-43.9c-14.6-12.1-32.8-26.4-37.6-46.7c-2.3,3.9-4.8,7.7-7.4,11.3
					c7.1,17,21.1,30.1,35,41.7c20.2,16.8,40.4,33.5,60.6,50.2c-2,10.8-4.3,21.5-6.6,32.3C564.3,1039.3,535.3,1005.1,514,966z"/>
			</g>
		</g>
		<linearGradient id="SVGID_29_" gradientUnits="userSpaceOnUse" x1="1828.7168" y1="908.5565" x2="1538.3903" y2="1381.2186">
			<stop  offset="1.219512e-02" style="stop-color:#722E55"/>
			<stop  offset="1" style="stop-color:#633459"/>
		</linearGradient>
		<path class="st31" d="M1798.8,962.4c-2.2,6.4-3.6,13-4.4,19.7c-0.1-0.1-0.2-0.1-0.3-0.2c-0.2-0.1-0.4-0.3-0.6-0.5
			c-0.1-0.1-0.1-0.1-0.2-0.2c-1.6-1.4-3.2-2.9-4.7-4.4c-6.4-6.4-12.1-13.7-19.9-18.5c-8.7-5.4-20.1-6.2-28.7-0.1
			c-10,7-13.1,19.9-12.7,31.4c0.3,10.7,5.1,21.7,3.4,32.3c-1.9,12.1-13.8,7.5-21.7,3.2c-10.9-5.9-20.9-12.7-33.2-15.6
			c-11.5-2.6-23.2-2.6-34.8-0.5c-24.2,4.4-47.2,19.9-58.6,42c-9.2-0.4-18.7,2.5-26.4,8.2c-19.5,14.5-21.4,40.6-22,62.9
			c-1.4,56.3-2.6,112.6-3.9,168.9c-0.6,23.7-1.3,48.3,5.8,71.3c6.8,22.2,21.1,40.2,40.8,52.5c18.5,11.5,40,17.6,61.2,21.6
			c12.3,2.3,24.7,4,37.1,5.2c20.5-20.5,37.3-45.1,52.8-69.4c37.8-59.5,73-120.8,100.1-186c12.6-30.4,23-61.9,28.8-94.4
			c7.2-40.1,8.5-78.9,2.7-119.2c-3.3-23.2-9.8-45.2-18-66.7C1821.6,919.7,1806.4,939.7,1798.8,962.4z"/>
		<linearGradient id="SVGID_30_" gradientUnits="userSpaceOnUse" x1="458.4697" y1="1094.6141" x2="381.1026" y2="1220.5706">
			<stop  offset="1.219512e-02" style="stop-color:#722E55"/>
			<stop  offset="1" style="stop-color:#633459"/>
		</linearGradient>
		<path class="st32" d="M649.4,1152.2c-8.2-18-22.9-34.1-41.3-42c-9.8-4.2-20.1-5.9-30.7-5.1c-10.5,0.8-20.7,3.3-31.2,3.8
			c-4.8,0.2-8.5,0.1-12.9-1.6c-0.4-0.2-0.6-0.2-0.6-0.2c-0.2-0.1-0.5-0.3-1.2-0.6c0.3,0.2-2.9-1.9-2.4-1.4c-1.7-1.4-3.1-3-3.8-4.1
			c-4.3-6.6-5.2-14.3-4.2-22.8c0.9-8.3,5.6-19.2,9.3-27.9c4.8-11.1,9.7-22,11-34.1c1.2-10.3-0.9-21.2-7.9-29.1
			c-7.5-8.5-19.1-11.1-30-9.8c-11.8,1.4-23.3,5.7-34.3,10c-11.2,4.4-22.1,9.4-32.6,15.1c-10.1,5.5-19.6,11.8-29,18.3
			c-8.9,6.1-18,12.6-28.6,15.2c-7.3,1.8-15.8,1.6-22-3c-2.5-1.8-3.4-3.2-5.1-6.3c-0.2-0.3-0.3-0.5-0.4-0.6c-0.1-0.2-0.1-0.3-0.2-0.6
			c-0.2-0.7-0.5-1.3-0.7-2c-0.3-1-0.6-2.1-0.8-3.1c-0.1-0.3-0.3-1.9-0.3-2c-1.9-17.1,2.8-34.1,0.3-51.2c-1.3-8.9-4.9-16.8-10.8-23.6
			c-3.6-4.2-12.1-4.4-15.7,0c-15.3,19-30.6,37.9-45.9,56.9c-7.6,9.5-15.3,19-22.9,28.5c-5.9,7.3-12.2,18.1-21.2,21.8
			c-2.6,1.1-5,1.1-7.3,0.4c-1.5-0.5-2.7-2.5-4.3-5.1c-4-6.6-7.6-13.9-14.6-17.8c-9.7-5.4-21.1-1.8-27.5,6.8
			c-5.5,7.5-6.6,17.1-7,26.2c-1.1,23.9-0.2,47.9,2.5,71.7c-0.1,0.4-0.3,0.9-0.3,1.4c-6.3,45.5,10.5,90.2,40.3,124.4
			c29.4,33.8,70,55.8,111.4,71c45.3,16.6,93.6,25.6,141.9,27c23.9,0.7,47.8-0.5,71.5-3.6c23.5-3.1,48-6.7,69.9-16
			c20.9-8.9,34.9-25.4,41.7-46.9c6.5-20.8,7.4-43.9,8.5-65.6C661.2,1199.8,659.7,1174.8,649.4,1152.2z"/>
		<linearGradient id="SVGID_31_" gradientUnits="userSpaceOnUse" x1="971.1067" y1="954.5978" x2="971.1067" y2="1364.0697">
			<stop  offset="1.219512e-02" style="stop-color:#633459"/>
			<stop  offset="0.522" style="stop-color:#421F49"/>
			<stop  offset="1" style="stop-color:#2A143A"/>
		</linearGradient>
		<path class="st33" d="M1727.6,1372.3c32.5-51.3,63.2-103.8,88.3-159c-24.5,13.7-52.3,21.1-81.1,27c-46.2,9.5-93.7,18.6-141.1,15
			c-46.3-3.5-85.3-21.9-117.8-54.9c-26.1-26.5-48.2-58.3-79.7-78.9c-30.9-20.1-65.9-20.4-99.2-5.7c-42,18.4-76.9,50.7-123.8,56.8
			c-53.2,6.9-105.8-13.8-154.7-32.2c-74.7-28-170.8-53.9-231.4,15.5c-23.7,27.2-38.9,61.2-64.6,86.8c-16,16-35.6,25.9-58.5,27.4
			c-26.6,1.8-53.7-4.8-79.8-9.1c-56.9-9.2-113.8-18.4-170.7-27.6c-27.7-4.5-55.5-9-83.2-13.5c-19.7-3.2-44.5-5.1-59.4-20.2
			c-18.5-18.7,1.1-41.7,1.3-62.9c0.1-12.7-7-23-18.6-27.8c-29.1-12-75.5,5.4-92.5-29.7c-8.4-17.4-5.2-39-3.4-57.5
			c1.7-17.5,4-35.7,0.3-53.1c-2.4-11.2-7.2-21.7-13.8-31c-38,110.3-11.6,231.2,40.2,332.6c19.9,38.8,43.8,75.1,69.4,110.3h1468.2
			C1724,1377.9,1725.8,1375.1,1727.6,1372.3z"/>
		<linearGradient id="SVGID_32_" gradientUnits="userSpaceOnUse" x1="1000.6968" y1="1356.1337" x2="1000.6968" y2="1761.0786">
			<stop  offset="1.219512e-02" style="stop-color:#633459"/>
			<stop  offset="0.522" style="stop-color:#421F49"/>
			<stop  offset="1" style="stop-color:#2A143A"/>
		</linearGradient>
		<path class="st34" d="M1833.6,1492.5c-4.3-28.1-14-57.2-30.9-80.2c-20.1-27.3-47.3-46-80.3-54.5c-30.8-7.9-63.1-7.9-94.6-8.5
			c-34.7-0.7-69.4-1.4-104.1-2.1c-69.9-1.4-139.8-2.9-209.7-4.3c-139.8-2.9-279.6-5.8-419.4-8.6s-279.6-5.8-419.4-8.6
			c-35.2-0.7-70.4-1.4-105.7-2.2c-31.8-0.7-64.1-1.9-95.4,5.6c-33.3,8-60.5,27.5-80.2,55.2c-18.5,25.9-26.8,58.2-29,89.5
			c-2.5,35.2,4.2,70.8,11,105.2c0.3,1.5,0.7,2.9,1.3,4.3c6.8,36.5,22.4,70.2,54.1,93.8c26.4,19.6,61.3,26.3,93.2,29.7
			c31.2,3.3,62.6,1.1,93.7-1.9c30.6-2.9,61.2-6.4,92.1-6.1c7.3,0.1,14.7,0.4,22,0.9c2.8,0.2,8.4-0.3,10.9,1.1
			c-0.2-0.1-6.3-1-2.3-0.3c2.2,0.4,4.5,0.7,6.7,1.1c7.1,1.3,14.1,2.8,21.1,4.8c3.5,1,6.9,2.1,10.3,3.3c1.7,0.6,3.4,1.3,5.1,1.9
			c0.1,0.1,0.3,0.1,0.4,0.1c0.1,0,0.2,0.1,0.2,0.1c25.4,13.1,46.7,30.6,69.8,47.3c26.8,19.4,56.1,31.7,89.2,34.8
			c32.3,3,65.6-4.9,95.9-15.6c16.4-5.8,32.4-12.6,48.4-19.3c3.5-1.5,7.1-3,10.6-4.5c1.3-0.5,7-3,7.3-3.1c6.7-2.8,13.5-5.6,20.2-8.2
			c29.5-11.4,59.8-20.8,90.6-28.1c15.4-3.7,30.9-6.8,46.5-9.5c6.9-1.2,13.8-2.2,20.7-3.2c0,0,0.1,0,0.1,0c1.9-0.2,3.8-0.5,5.7-0.7
			c4.3-0.5,8.6-1,12.9-1.4c31.5-3.2,63.2-4.3,94.8-3.3c15.3,0.5,30.7,1.4,45.9,2.9c7.6,0.7,15.3,1.3,22.9,2.6
			c-7.7-1.3,3.1,0.4,5.3,0.8c4.3,0.6,8.5,1.3,12.8,2c64.1,10.8,125.8,32,189.3,45.6c59.8,12.8,120.3,18.3,180.6,5.5
			c51.5-11,103.3-36.6,136.7-78.2C1833.1,1625,1843.8,1558.3,1833.6,1492.5z"/>
		<g>
			<linearGradient id="SVGID_33_" gradientUnits="userSpaceOnUse" x1="728.125" y1="888.6993" x2="807.6607" y2="941.3495">
				<stop  offset="0" style="stop-color:#B1696A"/>
				<stop  offset="1" style="stop-color:#A05667"/>
			</linearGradient>
			<path class="st35" d="M950.4,614.5c0,0-290.9,512.7-405.7,574l149.4,7.9l294.9-254.8L950.4,614.5z"/>
			<linearGradient id="SVGID_34_" gradientUnits="userSpaceOnUse" x1="1487.0498" y1="1370.7883" x2="1486.7394" y2="1236.776">
				<stop  offset="0" style="stop-color:#C47E7E"/>
				<stop  offset="1" style="stop-color:#B1696A"/>
			</linearGradient>
			<path class="st36" d="M1255.9,1181.9v201.6h399c0,0,48.8-160.4,62.9-173L1255.9,1181.9z"/>
			<linearGradient id="SVGID_35_" gradientUnits="userSpaceOnUse" x1="1191.0029" y1="1442.8965" x2="668.9665" y2="871.8104">
				<stop  offset="0" style="stop-color:#C47E7E"/>
				<stop  offset="1" style="stop-color:#B1696A"/>
			</linearGradient>
			<path class="st37" d="M950.4,614.5c0,0-157.3,408.9-330.2,553.6v215.4h635.8l101.8-309.8L950.4,614.5z"/>
			<path class="st38" d="M950.4,614.5l525.3,135.2c0,0,248.5,449.8,386.9,506.4h-512.7C1349.8,1256.2,1029,1061.2,950.4,614.5z"/>
			<polygon class="st39" points="950.4,614.5 838.7,1274.7 833.9,1378.3 984,1378.3 1015.8,1210.9 984.7,905.5 			"/>
			<linearGradient id="SVGID_36_" gradientUnits="userSpaceOnUse" x1="1114.6158" y1="924.621" x2="926.4407" y2="1018.1556">
				<stop  offset="0" style="stop-color:#B1696A"/>
				<stop  offset="1" style="stop-color:#A05667"/>
			</linearGradient>
			<path class="st40" d="M950.4,614.5l11,769c0,0,88.1-80.2,176.1-78.6C1137.5,1304.9,996,1045.4,950.4,614.5z"/>
			<linearGradient id="SVGID_37_" gradientUnits="userSpaceOnUse" x1="810.076" y1="936.8076" x2="955.1678" y2="1036.9176">
				<stop  offset="0" style="stop-color:#B1696A"/>
				<stop  offset="1" style="stop-color:#A05667"/>
			</linearGradient>
			<path class="st41" d="M950.4,614.5l-83.3,769c0,0-88.1-91.2-140-84.9C727.1,1298.6,920.5,919.6,950.4,614.5z"/>
		</g>
		<linearGradient id="SVGID_38_" gradientUnits="userSpaceOnUse" x1="458.0326" y1="588.395" x2="458.0326" y2="1148.6847">
			<stop  offset="1.219512e-02" style="stop-color:#633459"/>
			<stop  offset="0.522" style="stop-color:#421F49"/>
			<stop  offset="1" style="stop-color:#2A143A"/>
		</linearGradient>
		<path class="st42" d="M548,780.1c5-83.8,7.2-167.9,8.5-251.9c1.3-87.5,1.7-175,2.3-262.5c0.1-15,1-32.8,0.3-50
			c-5.3,1.3-10.5,2.6-15.7,4.1c-15.6,4.5-30.6,10.2-45,16.9c3.5,83.2,3.8,166.7,0.9,250c-1.4,42-3.7,83.9-6.7,125.8
			c-3.1,43.2-6.4,79-11.2,121.8c-9.2,82.7-21.6,164.6-37,245.3c-15.5,81-34,160.8-55.6,238.8c-2.5,9.2-5.1,18.3-7.7,27.5
			c-0.4,1.3-0.8,2.6-1.1,3.9c0.2-0.8,0.8-2.8-0.3,1c-0.7,2.3-1.3,4.6-2,6.8c-1.4,4.6-2.7,9.2-4.1,13.8c-0.9-0.3-1.8-0.4-2.6-0.3
			c-8.2,0.5-13.1,8.9-13.9,20.2c-1.4,19.6,5.7,39.7,16.2,51.7c12.2,14,26.8,18.5,42,13.9c29-8.7,46.5-47.2,57.2-84.2
			c22.5-77.3,38.8-158.5,50.8-240.5C535.3,949.1,543,864.6,548,780.1z M414.6,1314.9C415.1,1314.6,416.7,1313.9,414.6,1314.9
			L414.6,1314.9z"/>
		<g>
			<g>
				<path class="st43" d="M484.8,1089.3c-0.9-1.6-3.4-0.2-2.5,1.5c5.3,9.4,22.9,25.8,14.7,37.2c-0.5-4.7-1.7-9.4-3.4-13.5
					c-4.3-10.4-16-23.2-11.9-36.9c1.5-4.9-2.7-9.3-5-6.8c-0.4-0.3-0.8-0.4-1.4-0.5c-16.9-0.9-35-9.2-50.9,2.8
					c-11.5,8.7-19,29.3-11.5,46.5c3.8,8.8,10.5,12.1,17.4,13.3c3.7,0.6,7.5,0.6,11.2,1.6c4.5,1.2,8.5,4.1,12.5,7.2
					c7.1,5.6,16.1,12.8,24.6,13.4c-2.1,1-4.4,1.7-6.9,1.8c-1.8,0.1-1.9,3,0,2.9c5.1-0.3,9.7-2.3,13.1-5.6c3.1-1.2,6.1-3.8,8.8-8.1
					c2.5-4.2,3.6-9.1,3.6-14.1C510.8,1119.1,491.3,1100.8,484.8,1089.3z"/>
				<path class="st43" d="M502.2,1012.5c-5.3-13.7-17.2-24.1-31.3-27.7c-0.7-0.3-1.5-0.5-2.2-0.5c-0.4-0.1-0.9-0.2-1.3-0.3
					c-4.6-0.8-6.9,4.9-4.4,7.4c-7.8,26,2.7,54,25.7,68.9c3.2,2.1,6.3-0.8,6.4-3.8C504.6,1044.2,507.9,1027.3,502.2,1012.5z"/>
				<linearGradient id="SVGID_39_" gradientUnits="userSpaceOnUse" x1="478.9383" y1="1069.4863" x2="371.2916" y2="1031.8413">
					<stop  offset="0" style="stop-color:#FFB19F"/>
					<stop  offset="1" style="stop-color:#F98575"/>
				</linearGradient>
				<path class="st44" d="M490.5,1044.3c3.9-40.6-29.7-57.3-29.7-57.3c-87.3,0.7-81.4,65.8-73.1,101.3c8.3,35.5,58.1,47.4,77.8,46.8
					c15.1-0.4,19.6-19.8,21.8-44.1c2.8-0.2,9.8-1.6,10.1-4.5c0.3-2.7-5.9-18.2-8.2-23.7C489.4,1056.6,489.9,1050.3,490.5,1044.3z"/>
				<path class="st43" d="M479.8,992.3c-0.8-0.7-1.6-1.1-2.5-1.2c-16-15.8-45-14.9-65.8-8.6c-26.1,8-46.8,26.5-56.7,50.4
					c-5.2,12.7-5.9,25.5-6.1,38.9c-0.1,6.4-0.4,12.9-2.5,19c-2.2,6.3-7.1,12.4-5.4,19.3c3.1,12.1,20.4,11.8,30.6,14
					c7.2,1.5,14.2,3.7,20.4,7.4c6.2,3.7,11.4,8.7,16.3,13.8c10.2,10.5,20.3,21.9,35.1,26.8c1.8,0.6,3.8,1.1,5.9,1.4
					c1.7-6.8,4.4-15.9,4.4-15.9l15.7-12.7c0.3-2.7,0.7-5.4,0.9-7.8c0.1-1.5,0.1-2.9,0-4.3c3.7-5.3,4.6-12.3,1.3-18.5
					c-2.5-4.7-6.6-6.9-11-9.4c-1.9-1.1-3.6-2.3-5.1-3.6c0-0.5,0-0.9,0.1-1.4c0.4-6.6,0.3-12.7-3.9-18.3c-2.5-3.3-6.7-6.1-9.4-9.6
					c2-4.4,5.4-7.9,9.9-10.1c5.8-2.8,12.4-3.7,18-7c6.6-3.8,11.8-9.8,14.8-16.7c1.3-1.7,2.5-3.5,3.4-5.4
					C495.3,1019,491.5,1002.7,479.8,992.3z M470.4,1119.4c0.7,3.1,0.4,6.1-0.8,8.8c-0.8-3.6-2.5-6.9-5.2-9.9
					c-2.3-2.6-5.3-4.8-7.2-7.7c-1.2-1.8-1.6-3.7-1.8-5.6c1.3,1,2.7,1.9,4.3,2.8C464.7,1110.4,469.2,1113.6,470.4,1119.4z
					 M457.7,1056.6c-7.5,2.4-13.7,6.4-17.2,12.5c-0.1-0.2-0.2-0.4-0.3-0.6c-2.8-7.6,7.3-12.3,13.5-14.1c7.5-2.1,15.3-3.4,21.9-7.7
					c0.2-0.1,0.3-0.2,0.5-0.4C471,1051.9,464.7,1054.4,457.7,1056.6z"/>
				<linearGradient id="SVGID_40_" gradientUnits="userSpaceOnUse" x1="681.8179" y1="1307.6029" x2="592.7485" y2="1307.6029">
					<stop  offset="0" style="stop-color:#FFB19F"/>
					<stop  offset="1" style="stop-color:#F98575"/>
				</linearGradient>
				<path class="st45" d="M606,1298.4c6.2-2.5,39.9-8.9,49-5.5c9.1,3.4,32.8,27.1,25.3,28.3c-7.5,1.2-24.3-17.9-32.4-10.8
					s-22.4,12.9-22.4,12.9h-32.8L606,1298.4z"/>
				<path class="st46" d="M597.8,1291.9l10.8-1.4c2.2-0.4,4.3,0.8,5,3c2.7,9,9.3,30.4,6.9,33.6c-3,4.1-12.6,8.5-12.6,8.5
					L597.8,1291.9z"/>
				
					<linearGradient id="SVGID_41_" gradientUnits="userSpaceOnUse" x1="1160.9365" y1="1276.0297" x2="1299.2284" y2="1276.0297" gradientTransform="matrix(-1 0 0 1 1770 0)">
					<stop  offset="0" style="stop-color:#FF4867"/>
					<stop  offset="1" style="stop-color:#ED2E56"/>
				</linearGradient>
				<path class="st47" d="M467.9,1189.5c0,0,28.6,116.8,38.5,115.6c9.9-1.2,92.4-16.1,92.4-16.1s19.5,25.5,4.7,40.3
					c-14.9,14.8-143.8,33.2-143.8,33.2l-32.6-76.8L467.9,1189.5z"/>
				
					<linearGradient id="SVGID_42_" gradientUnits="userSpaceOnUse" x1="1118.7621" y1="1343.8899" x2="1171.3365" y2="1383.2338" gradientTransform="matrix(-1 0 0 1 1770 0)">
					<stop  offset="0" style="stop-color:#E6E7E8"/>
					<stop  offset="1" style="stop-color:#BCBEC0"/>
				</linearGradient>
				<path class="st48" d="M510.5,1335.6c0,0,101.5-22.1,126-15.9c16.3,4.1,55.1,59.2,61.7,122.9l-200.8,43.8l-26.8-59.5l10.6-89.7
					L510.5,1335.6z"/>
				<linearGradient id="SVGID_43_" gradientUnits="userSpaceOnUse" x1="703.4875" y1="1484.416" x2="492.047" y2="1478.8556">
					<stop  offset="0" style="stop-color:#F1F2F2"/>
					<stop  offset="1" style="stop-color:#D1D3D4"/>
				</linearGradient>
				<path class="st49" d="M335.3,1488.6c0,0-10.4,57.3,62.3,62.7s140.4-5.4,198.1-26.2c57.7-20.8,118.4-46.1,106.3-84.3
					c-12-38.2-40.7-34.9-63.1-30.3c-22.4,4.6-145.2,5.3-145.2,5.3L335.3,1488.6z"/>
				<path class="st43" d="M641.3,1500.8c11.4-3.9,26.4-29.5,47.2-31.3c20.5-1.8,45.5,1.6,34.4,33.6c-10.6,30.5-87.6,50.1-114.6,45
					c-27-5.1-28.1-28.8-13-36.6C614.5,1501.7,626.9,1505.8,641.3,1500.8z"/>
				<linearGradient id="SVGID_44_" gradientUnits="userSpaceOnUse" x1="454.2109" y1="1264.5165" x2="289.7311" y2="1373.8484">
					<stop  offset="0" style="stop-color:#FF4867"/>
					<stop  offset="1" style="stop-color:#ED2E56"/>
				</linearGradient>
				<path class="st50" d="M489.4,1329.5c-0.8-14.2-11.8-89.3-21.5-140c-2.4-12.9,13.4-49,7.3-46.9c-6,2.1-19.2,0-19.2,0
					c-2.6-3.1-6.7-5.8-6.8-9.2l-9-5.1l-24.3-22.3c-5.7,2.5-13.6,4.7-24.4,6c-46.1,5.6-81,64.2-91,104.7
					c-10,40.5-1.9,204.3,13.7,229.3c15.6,24.9-8.1,39.9,53,53c61.1,13.1,130-79.4,130-79.4S490.7,1350.7,489.4,1329.5z"/>
				<linearGradient id="SVGID_45_" gradientUnits="userSpaceOnUse" x1="456.1007" y1="1110.9741" x2="295.7772" y2="1110.9741">
					<stop  offset="0" style="stop-color:#FF4867"/>
					<stop  offset="1" style="stop-color:#ED2E56"/>
				</linearGradient>
				<path class="st51" d="M454.3,1139.2c-3.5-8.7-8.6-16.9-14.6-24.1c-11.3-13.5-27.9-32.4-40.6-42.6
					c-22.7-18.1-55.1-27.1-58.9-21.8c-7.2,10,5.6,27.7-0.6,36.4s-48.8,55.6-43.3,68.8c6.2,15,25.2,29,63.6-0.9
					c37-28.9,78.6-23.3,96.3-12.5C456.1,1142.6,454.5,1139.7,454.3,1139.2z"/>
				<path class="st46" d="M489.4,1329.5c-0.8-14.2-11.8-89.3-21.5-140c-2.4-12.9,13.4-49,7.3-46.9c-2.6,0.9-6.4,1-10,0.9
					c0,0-7.7,35.6-4.8,47.4c2.9,11.8,22.3,157.6,22.3,157.6l11.7,41.7l0,0C492.5,1368.8,490.1,1341.5,489.4,1329.5z"/>
				<g>
					<linearGradient id="SVGID_46_" gradientUnits="userSpaceOnUse" x1="738.9841" y1="1383.7125" x2="640.3279" y2="1383.7125">
						<stop  offset="0" style="stop-color:#FFB19F"/>
						<stop  offset="1" style="stop-color:#F98575"/>
					</linearGradient>
					<path class="st52" d="M640.3,1362c0,0,41.5-8.4,50.9-10.1c17.1-3.1,44.7,21.2,45.9,25.2c1.2,4,3.5,43.3,0,37.7
						c-3.5-5.6-6.9-32.7-13.2-35.5c-6.2-2.8-14.6-7.2-14.6-7.2s14.6,5.3,15.9,16.5c1.2,11.2,9.3,29.1,3.1,26.7
						c-6.2-2.4-10.3-24.2-15.3-27.3c-5-3.1-8.1-4.6-8.1-4.6s7.8,3.3,7.8,8.9s7.2,25.8,3.4,23.2s-6.2-16.7-10-20.4
						c-3.7-3.7-5.6-4.4-5.6-4.4s4.4,4,4.4,7.8s7.5,16.7,1.6,14.5c-5.9-2.3-6.4-14-10.3-14.5c-3.9-0.4-23.7-9.3-32.4-10.3
						s-19.9,2.5-19.9,2.5L640.3,1362z"/>
					<path class="st46" d="M639.1,1353.6h9.8c2.7,0,4.9,2,5.2,4.7c1,11.3,3.1,39.2-0.4,42.5c-4.5,4.2-17,7-17,7L639.1,1353.6z"/>
					
						<linearGradient id="SVGID_47_" gradientUnits="userSpaceOnUse" x1="1263.7661" y1="1279.4446" x2="1349.3857" y2="1425.8306" gradientTransform="matrix(-1 0 0 1 1770 0)">
						<stop  offset="0" style="stop-color:#FF4867"/>
						<stop  offset="1" style="stop-color:#ED2E56"/>
					</linearGradient>
					<path class="st53" d="M423,1148.4c0,0,29.3,0.8,33.1,55.7c3.8,54.8,12.5,123.8,18.8,125.4s163.2,15,164.1,20.4
						c0,0,11.2,49,0,60.6c0,0-181.9,22.8-216-4.2c-34.1-27-77.2-188.6-71.9-215.6C356.5,1163.8,386.7,1146.7,423,1148.4z"/>
				</g>
			</g>
			<g>
				
					<linearGradient id="SVGID_48_" gradientUnits="userSpaceOnUse" x1="1121.8282" y1="1307.6029" x2="1210.8976" y2="1307.6029" gradientTransform="matrix(1 0 0 1 16 0)">
					<stop  offset="0" style="stop-color:#FFB19F"/>
					<stop  offset="1" style="stop-color:#F98575"/>
				</linearGradient>
				<path class="st54" d="M1213.6,1298.4c-6.2-2.5-39.9-8.9-49-5.5c-9.1,3.4-32.8,27.1-25.3,28.3s24.3-17.9,32.4-10.8
					c8.1,7.1,22.4,12.9,22.4,12.9h32.8L1213.6,1298.4z"/>
				
					<linearGradient id="SVGID_49_" gradientUnits="userSpaceOnUse" x1="1242.9043" y1="1255.3795" x2="1310.8717" y2="1272.9679" gradientTransform="matrix(1 0 0 1 16 0)">
					<stop  offset="0" style="stop-color:#E6E7E8"/>
					<stop  offset="1" style="stop-color:#D1D3D4"/>
				</linearGradient>
				<path class="st55" d="M1350.1,1189.5c0,0-28.6,116.8-38.5,115.6c-9.9-1.2-92.4-16.1-92.4-16.1s-19.5,25.5-4.7,40.3
					c14.9,14.8,143.8,33.2,143.8,33.2l32.6-76.8L1350.1,1189.5z"/>
				<g>
					<linearGradient id="SVGID_50_" gradientUnits="userSpaceOnUse" x1="1361.9417" y1="1109.6007" x2="1426.6617" y2="1109.6007">
						<stop  offset="0" style="stop-color:#FFB19F"/>
						<stop  offset="1" style="stop-color:#F98575"/>
					</linearGradient>
					<path class="st56" d="M1426.4,1112.1c-46.1-5.6-38.6-26.8-38.6-26.8l-25.9,32.7c0,0,4.5,7.8,3.6,15.9l53.4-14.4l7.7-7.3
						C1426.6,1112.1,1426.5,1112.1,1426.4,1112.1z"/>
					
						<linearGradient id="SVGID_51_" gradientUnits="userSpaceOnUse" x1="-3605.3101" y1="1278.0876" x2="-3658.762" y2="1219.6134" gradientTransform="matrix(-0.9961 8.833532e-02 8.833532e-02 0.9961 -2370.592 126.7806)">
						<stop  offset="0" style="stop-color:#FFB19F"/>
						<stop  offset="1" style="stop-color:#F98575"/>
					</linearGradient>
					<path class="st57" d="M1311.7,1030.7c-2.6-27.1,11.5-43.6,21.2-51.5c4.8-4,11-5.9,17.3-5.5c78.1,4.9,72.3,66.8,64.3,101
						c-8.3,35.5-58.1,47.4-77.8,46.8c-15.1-0.4-19.6-19.8-21.8-44.1c-2.8-0.2-9.8-1.6-10.1-4.5c-0.3-2.7,5.9-18.2,8.2-23.7
						C1312.8,1042.9,1312.3,1036.7,1311.7,1030.7z"/>
				</g>
				
					<linearGradient id="SVGID_52_" gradientUnits="userSpaceOnUse" x1="1151.2168" y1="1350.2061" x2="1207.2188" y2="1387.2858" gradientTransform="matrix(1 0 0 1 16 0)">
					<stop  offset="0" style="stop-color:#BCBEC0"/>
					<stop  offset="1" style="stop-color:#939598"/>
				</linearGradient>
				<path class="st58" d="M1303.7,1333.8c0,0-101.5-22.1-126-15.9c-16.3,4.1-55.1,59.2-61.7,122.9l200.8,43.8l26.8-59.5l-10.6-89.7
					L1303.7,1333.8z"/>
				
					<linearGradient id="SVGID_53_" gradientUnits="userSpaceOnUse" x1="1244.7162" y1="1480.2444" x2="1423.532" y2="1480.2444" gradientTransform="matrix(1 0 0 1 16 0)">
					<stop  offset="0" style="stop-color:#BCBEC0"/>
					<stop  offset="1" style="stop-color:#939598"/>
				</linearGradient>
				<path class="st59" d="M1482.7,1488.6c0,0,10.4,57.3-62.3,62.7s-140.4-5.4-198.1-26.2c-57.7-20.8-118.4-46.1-106.3-84.3
					c12-38.2,40.7-34.9,63.1-30.3c22.4,4.6,145.9,5.3,145.9,5.3L1482.7,1488.6z"/>
				<path class="st43" d="M1167.3,1500.8c-11.4-3.9-26.4-29.5-47.2-31.3c-20.5-1.8-45.5,1.6-34.4,33.6c10.6,30.5,87.6,50.1,114.6,45
					c27-5.1,28.1-28.8,13-36.6C1194.1,1501.7,1181.7,1505.8,1167.3,1500.8z"/>
				
					<linearGradient id="SVGID_54_" gradientUnits="userSpaceOnUse" x1="1063.0582" y1="1383.7125" x2="1161.7145" y2="1383.7125" gradientTransform="matrix(1 0 0 1 16 0)">
					<stop  offset="0" style="stop-color:#FFB19F"/>
					<stop  offset="1" style="stop-color:#F98575"/>
				</linearGradient>
				<path class="st60" d="M1177.7,1362c0,0-41.5-8.4-50.9-10.1c-17.1-3.1-44.7,21.2-45.9,25.2s-3.5,43.3,0,37.7
					c3.5-5.6,6.9-32.7,13.2-35.5s14.6-7.2,14.6-7.2s-14.6,5.3-15.9,16.5c-1.2,11.2-9.3,29.1-3.1,26.7c6.2-2.4,10.3-24.2,15.3-27.3
					c5-3.1,8.1-4.6,8.1-4.6s-7.8,3.3-7.8,8.9s-7.2,25.8-3.4,23.2c3.7-2.6,6.2-16.7,10-20.4c3.7-3.7,5.6-4.4,5.6-4.4s-4.4,4-4.4,7.8
					s-7.5,16.7-1.6,14.5c5.9-2.3,6.4-14,10.3-14.5c3.9-0.4,23.7-9.3,32.4-10.3s19.9,2.5,19.9,2.5L1177.7,1362z"/>
				<linearGradient id="SVGID_55_" gradientUnits="userSpaceOnUse" x1="1372.3739" y1="1260.9463" x2="1522.7521" y2="1388.9833">
					<stop  offset="0" style="stop-color:#FF4867"/>
					<stop  offset="1" style="stop-color:#ED2E56"/>
				</linearGradient>
				<path class="st61" d="M1517.4,1216.8c-9.9-40.4-44.6-98.6-90.5-104.6l2,3.1l27.3,20.5l-73.8-8.7l-19.2,13.7
					c-0.4,0.6-0.8,1.2-1.3,1.8c0,0-13.2,2.1-19.2,0c-6-2.1,9.7,34,7.3,46.9c-9.7,50.7-20.6,125.8-21.5,140c-1.2,21.2-4.4,90-4.4,90
					s65.4,92.5,126.5,79.4c61.1-13.1,37.4-28,53-53C1519.3,1421.1,1527.4,1257.3,1517.4,1216.8z"/>
				
					<linearGradient id="SVGID_56_" gradientUnits="userSpaceOnUse" x1="1329.9943" y1="1309.5453" x2="1402.8813" y2="1361.4574" gradientTransform="matrix(1 0 0 1 16 0)">
					<stop  offset="0" style="stop-color:#F1F2F2"/>
					<stop  offset="1" style="stop-color:#D1D3D4"/>
				</linearGradient>
				<path class="st62" d="M1395.1,1148.4c0,0-29.3,0.8-33.1,55.7c-3.8,54.8-12.5,123.8-18.8,125.4c-6.2,1.7-163.2,15-164.1,20.4
					c0,0-11.2,49,0,60.6c0,0,181.9,22.8,216-4.2c34.1-27,77.2-188.6,71.8-215.6C1461.5,1163.8,1431.3,1146.7,1395.1,1148.4z"/>
				<path class="st43" d="M1385.9,977.8c-14.8-5.9-22.4-6.2-38.4-4.7c-4.2,0.4-8.3,1.2-12.1,2.5c-2.1,0.7-4.4,0.6-6.4-0.4
					c0,0,0,0,0,0c-6.1-3.1-12.5-5.5-19-0.4c-7.2,5.6-6.3,20.3,0.4,26.8c0.5,0.5,1,1.1,1.3,1.8c4.4,8.3,7.3,4.3,16.1,4.9
					c6.7,0.5,12.6,1.7,17.5,6.6c4.6,4.6,8.3,10.7,11.6,16.3c7,12.2,9.5,26.6-0.5,37.9c-4.4,5-10.7,8.1-17.2,8.9
					c-6.7,0.8-12.7-1.9-19.3-2c-4.7,0-8.3-0.4-9,4.4c-0.9,6,0.6,9.2,3.1,14.1c3.3,6.6,5.7,13.4,9.5,19.8c2.6,4.4,3.3,5.5,8.5,7.1
					c6,1.8,11.7,1,16.7-1.8c6-3.4,9.9-3.6,15.3-7.9c9.5-7.5,17.3-17.1,20.5-28.9c2-7.5,2-15.3,3-23c0.3-2.5,0.7-6.4,3.1-7.8
					c3.5-2,6.8,2.8,7.9,5.5c5.2,12,1,27.7,13.6,36c2.4,1.6,6.6,0.3,6-3.2c-2.8-16.5,7.9-30.8,9.1-46.5c1.2-15.2,0.1-32.3-9-44.3
					C1408.8,987.4,1399.8,983.4,1385.9,977.8z"/>
				
					<linearGradient id="SVGID_57_" gradientUnits="userSpaceOnUse" x1="1347.7637" y1="1110.9741" x2="1506.265" y2="1110.9741" gradientTransform="matrix(1 0 0 1 16 0)">
					<stop  offset="0" style="stop-color:#F1F2F2"/>
					<stop  offset="1" style="stop-color:#D1D3D4"/>
				</linearGradient>
				<path class="st63" d="M1365.6,1130.8c0,0,32-41.3,53.3-58.3c22.7-18.1,55.1-27.1,58.9-21.8c7.2,10-5.6,27.7,0.6,36.4
					c6.2,8.7,48.8,55.6,43.3,68.8c-6.2,15-25.2,29-63.6-0.9c-37-28.9-76.8-26-94.4-15.2C1363.8,1139.9,1365.7,1136,1365.6,1130.8z"
					/>
				<path class="st46" d="M1440.6,1265c9-31.3,14.7-63.7,14.5-96.4c-3.3-3.4-7.1-6.4-11.3-9c-0.2,0.7-0.4,1.4-0.3,2.2
					c1.9,59.5-17.1,116.7-39.1,171.1c-5.2,13-10,26.7-17.1,38.7c-6.4,10.8-15.8,17.8-27.8,21.2c-12.2,3.5-25,3.6-37.6,3.5
					c-15.2-0.1-30.4-0.5-45.5-1.1c-34.2-1.5-68.3-4.5-102.2-9c-0.1,4.1,0,8,0.4,11.6c30,3.9,60.2,6.8,90.4,8.4
					c16.4,0.9,32.9,1.4,49.3,1.6c13.7,0.2,27.5,0.3,41.1-2.2c12.5-2.3,24.8-7.6,33.6-17c9.6-10.2,14.6-23.5,19.8-36.2
					C1420.7,1323.9,1432.1,1294.9,1440.6,1265z"/>
			</g>
			<g>
				<linearGradient id="SVGID_58_" gradientUnits="userSpaceOnUse" x1="882.4808" y1="1235.2767" x2="882.4808" y2="1420.673">
					<stop  offset="0" style="stop-color:#FFF5BD"/>
					<stop  offset="1" style="stop-color:#FBEE86"/>
				</linearGradient>
				<path class="st64" d="M821.4,1437.8c0,0-22.5-11.9-31.4-44.7c-1.3-4.8,4.6-8.1,8.1-4.6c4.8,4.8,10.3,7.9,14.7,3.9
					c0,0-24.4-32.8-21.9-59.8c0.4-4.7,6.7-6.2,9-2c3.8,6.9,9.4,13.9,14.9,11c10-5.3,2.8-37.5,20.1-59.6
					c7.9-10.1,10.3-19.9,10.5-27.5c0.1-4.1,5.4-5.7,7.7-2.3c7.2,10.5,14.6,25.3,9.1,36.6c0,0,9.5-23,7-57.2c-0.3-3.7,4-5.9,6.9-3.5
					c15.1,12.4,46,41.6,40.9,68c0,0,7.9,2.7,14.9-11.6c0.9-1.9,3.7-1.6,4.2,0.4c5,18.8,17.6,74.7-1.7,90.7c0,0,16.8-15.6,25-28.6
					c1.2-1.9,4.2-1,4.2,1.3c-0.5,17.5-2.4,49.5-9.2,56.7c0,0,20.1-14,20.7-23.4c0,0-3.3,53.5-31.4,58.8S821.4,1437.8,821.4,1437.8z"
					/>
				<linearGradient id="SVGID_59_" gradientUnits="userSpaceOnUse" x1="882.4808" y1="1357.2507" x2="882.4808" y2="1411.3986">
					<stop  offset="0" style="stop-color:#FF4867"/>
					<stop  offset="1" style="stop-color:#ED2E56"/>
				</linearGradient>
				<path class="st65" d="M849.2,1439.8c0,0-12.2-6.5-17.1-24.4c-0.7-2.6,2.5-4.4,4.4-2.5c2.6,2.6,5.6,4.3,8,2.1
					c0,0-13.3-17.9-11.9-32.6c0.2-2.6,3.6-3.4,4.9-1.1c2.1,3.8,5.1,7.6,8.1,6c5.5-2.9,1.5-20.5,11-32.5c4.3-5.5,5.6-10.8,5.7-15
					c0.1-2.2,2.9-3.1,4.2-1.3c3.9,5.7,7.9,13.8,5,20c0,0,5.2-12.5,3.8-31.2c-0.1-2,2.2-3.2,3.8-1.9c8.2,6.8,25.1,22.7,22.3,37.1
					c0,0,4.3,1.5,8.1-6.3c0.5-1,2-0.9,2.3,0.2c2.7,10.3,9.6,40.7-0.9,49.4c0,0,9.2-8.5,13.7-15.6c0.7-1.1,2.3-0.6,2.3,0.7
					c-0.3,9.5-1.3,27-5,30.9c0,0,10.9-7.7,11.3-12.8c0,0-1.8,29.2-17.1,32.1C900.6,1444.2,849.2,1439.8,849.2,1439.8z"/>
				<linearGradient id="SVGID_60_" gradientUnits="userSpaceOnUse" x1="882.4808" y1="1395.1743" x2="882.4808" y2="1423.5634">
					<stop  offset="0" style="stop-color:#FFF5BD"/>
					<stop  offset="1" style="stop-color:#FBEE86"/>
				</linearGradient>
				<path class="st66" d="M865.3,1434.4c0,0-6.3-3.3-8.8-12.5c-0.4-1.3,1.3-2.3,2.3-1.3c1.4,1.4,2.9,2.2,4.1,1.1
					c0,0-6.9-9.2-6.1-16.8c0.1-1.3,1.9-1.7,2.5-0.6c1.1,1.9,2.6,3.9,4.2,3.1c2.8-1.5,0.8-10.5,5.6-16.7c2.2-2.8,2.9-5.6,2.9-7.7
					c0-1.2,1.5-1.6,2.2-0.6c2,2.9,4.1,7.1,2.6,10.3c0,0,2.7-6.4,2-16c-0.1-1,1.1-1.7,1.9-1c4.2,3.5,12.9,11.7,11.5,19.1
					c0,0,2.2,0.8,4.2-3.2c0.3-0.5,1-0.4,1.2,0.1c1.4,5.3,4.9,20.9-0.5,25.4c0,0,4.7-4.4,7-8c0.3-0.5,1.2-0.3,1.2,0.4
					c-0.1,4.9-0.7,13.9-2.6,15.9c0,0,5.6-3.9,5.8-6.6c0,0-0.9,15-8.8,16.5C891.8,1436.6,865.3,1434.4,865.3,1434.4z"/>
				<path class="st43" d="M935,1442.9c0,0-20.1-10.4-66.6-3.8c-46.6,6.6-77.5,25.3-78.3,31.3s-0.1,40.8,27.1,30.5
					c27.2-10.3,83.1-24.9,105.2-21.8C935.2,1481.1,951.3,1456.3,935,1442.9z"/>
				<path class="st43" d="M824.9,1427.5c0,0,22.1-9.3,71.4-0.2s80.9,29.5,81.4,35.6c0.5,6.1-2.8,40.8-31.1,29
					c-28.3-11.8-86.9-29.5-110.7-27.5C821.9,1465.6,806.5,1440,824.9,1427.5z"/>
			</g>
		</g>
	</g>
</g>
</svg>
